<svg width="672" height="734" viewBox="0 0 672 734" fill="none" xmlns="http://www.w3.org/2000/svg">
<rect width="672" height="734" fill="white"/>
<path d="M560 79H112C76.6538 79 48 107.654 48 143V591C48 626.346 76.6538 655 112 655H560C595.346 655 624 626.346 624 591V143C624 107.654 595.346 79 560 79Z" fill="#101010"/>
<path d="M257 640C257 604.654 285.654 576 321 576H351C386.346 576 415 604.654 415 640V670C415 705.346 386.346 734 351 734H321C285.654 734 257 705.346 257 670V640Z" fill="#61DAFB"/>
<path d="M402.656 654.962C402.656 646.081 391.597 637.665 374.641 632.446C378.553 615.067 376.814 601.24 369.152 596.814C367.385 595.775 365.32 595.284 363.065 595.284V601.377C364.315 601.377 365.32 601.623 366.162 602.087C369.858 604.219 371.461 612.334 370.211 622.773C369.912 625.341 369.423 628.046 368.825 630.806C363.499 629.495 357.684 628.484 351.57 627.828C347.902 622.773 344.098 618.182 340.266 614.165C349.125 605.886 357.44 601.35 363.092 601.35V595.256C355.619 595.256 345.837 600.612 335.946 609.902C326.055 600.667 316.272 595.366 308.799 595.366V601.459C314.424 601.459 322.767 605.968 331.625 614.193C327.821 618.209 324.017 622.773 320.402 627.828C314.261 628.484 308.446 629.495 303.12 630.833C302.495 628.101 302.033 625.45 301.707 622.909C300.43 612.471 302.006 604.355 305.675 602.197C306.49 601.705 307.549 601.486 308.799 601.486V595.393C306.517 595.393 304.452 595.885 302.658 596.923C295.023 601.35 293.311 615.149 297.251 632.473C280.349 637.719 269.344 646.108 269.344 654.962C269.344 663.842 280.403 672.258 297.359 677.477C293.447 694.856 295.186 708.683 302.849 713.109C304.615 714.148 306.68 714.639 308.963 714.639C316.435 714.639 326.218 709.284 336.109 699.993C346 709.229 355.782 714.53 363.255 714.53C365.537 714.53 367.603 714.038 369.396 713C377.032 708.573 378.744 694.774 374.804 677.45C391.651 672.231 402.656 663.815 402.656 654.962ZM367.277 636.736C366.271 640.261 365.021 643.895 363.608 647.529C362.494 645.343 361.326 643.157 360.048 640.971C358.798 638.785 357.467 636.654 356.135 634.577C359.994 635.151 363.717 635.861 367.277 636.736ZM354.831 665.837C352.712 669.526 350.538 673.023 348.282 676.275C344.234 676.63 340.13 676.822 336 676.822C331.897 676.822 327.794 676.63 323.772 676.302C321.517 673.051 319.316 669.58 317.196 665.919C315.131 662.339 313.256 658.705 311.544 655.043C313.229 651.382 315.131 647.72 317.169 644.141C319.288 640.452 321.462 636.954 323.718 633.703C327.766 633.347 331.87 633.156 336 633.156C340.103 633.156 344.206 633.347 348.228 633.675C350.483 636.927 352.684 640.397 354.804 644.059C356.869 647.638 358.744 651.273 360.456 654.934C358.744 658.596 356.869 662.257 354.831 665.837ZM363.608 662.285C365.075 665.946 366.325 669.608 367.358 673.16C363.798 674.034 360.048 674.772 356.163 675.346C357.494 673.242 358.826 671.083 360.076 668.87C361.326 666.684 362.494 664.471 363.608 662.285ZM336.054 691.44C333.527 688.817 331 685.893 328.5 682.696C330.946 682.806 333.446 682.888 335.973 682.888C338.527 682.888 341.054 682.833 343.527 682.696C341.081 685.893 338.554 688.817 336.054 691.44ZM315.837 675.346C311.979 674.772 308.256 674.062 304.696 673.187C305.702 669.662 306.952 666.028 308.365 662.394C309.479 664.58 310.647 666.766 311.924 668.952C313.202 671.138 314.506 673.269 315.837 675.346ZM335.918 618.483C338.446 621.106 340.973 624.03 343.473 627.227C341.027 627.117 338.527 627.035 336 627.035C333.446 627.035 330.919 627.09 328.446 627.227C330.891 624.03 333.419 621.106 335.918 618.483ZM315.81 634.577C314.479 636.681 313.147 638.84 311.897 641.053C310.647 643.239 309.479 645.425 308.365 647.611C306.897 643.95 305.647 640.288 304.615 636.736C308.174 635.889 311.924 635.151 315.81 634.577ZM291.218 668.788C281.599 664.662 275.376 659.252 275.376 654.962C275.376 650.671 281.599 645.234 291.218 641.135C293.555 640.124 296.11 639.222 298.745 638.375C300.294 643.731 302.332 649.305 304.859 655.016C302.359 660.7 300.349 666.247 298.827 671.575C296.137 670.728 293.582 669.799 291.218 668.788ZM305.838 707.836C302.142 705.704 300.539 697.589 301.789 687.15C302.088 684.582 302.577 681.877 303.175 679.117C308.501 680.428 314.316 681.44 320.43 682.095C324.098 687.15 327.902 691.741 331.734 695.758C322.875 704.037 314.56 708.573 308.908 708.573C307.685 708.546 306.653 708.3 305.838 707.836ZM370.293 687.014C371.57 697.452 369.994 705.568 366.325 707.726C365.51 708.218 364.451 708.437 363.201 708.437C357.576 708.437 349.233 703.928 340.375 695.703C344.179 691.686 347.983 687.123 351.598 682.068C357.739 681.412 363.554 680.401 368.88 679.062C369.505 681.822 369.994 684.473 370.293 687.014ZM380.755 668.788C378.418 669.799 375.863 670.701 373.228 671.548C371.679 666.192 369.641 660.618 367.114 654.907C369.613 649.223 371.624 643.676 373.146 638.348C375.836 639.195 378.39 640.124 380.782 641.135C390.401 645.261 396.624 650.671 396.624 654.962C396.597 659.252 390.374 664.689 380.755 668.788Z" fill="#101010"/>
</svg>
