<?xml version="1.0" encoding="iso-8859-1"?>
<!-- Generator: Adobe Illustrator 19.0.0, SVG Export Plug-In . SVG Version: 6.00 Build 0)  -->
<svg version="1.1" id="Layer_1" xmlns="http://www.w3.org/2000/svg" xmlns:xlink="http://www.w3.org/1999/xlink" x="0px" y="0px"
	 viewBox="0 0 512 512" style="enable-background:new 0 0 512 512;" xml:space="preserve">
<path style="fill:#E8D6BD;" d="M491.865,391.191L485.1,414.87c-2.612,9.124-12.507,16.591-21.999,16.591H48.899
	c-9.492,0-19.387-7.467-21.999-16.591l-6.765-23.679H491.865z"/>
<path style="fill:#8E4238;" d="M366.005,149.838c-4.89,19.421-9.757,38.314-16.223,57.977
	c-11.828,35.898-23.966,72.762-28.58,114.343H190.798c-4.614-41.581-16.752-78.445-28.58-114.343
	c-6.466-19.663-11.333-38.555-16.223-57.977c26.026,9.941,26.417,15.843,54.284,15.843c27.855,0,27.855-16.108,55.71-16.108
	c27.867,0,27.867,16.108,55.733,16.108C339.588,165.681,339.979,159.779,366.005,149.838z"/>
<path style="fill:#C8FEFF;" d="M100.674,80.539h310.652c0,101.445-57.528,174.69-57.528,276.135H158.202
	c0-20.146-2.278-39.165-5.902-57.528h-49.44c-24.588,0-47.702-9.573-65.087-26.958c-17.385-17.385-26.958-40.5-26.958-65.087
	s9.573-47.702,26.958-65.087s40.5-26.958,65.087-26.958C101.468,103.873,100.674,92.402,100.674,80.539z M349.782,207.814
	c6.466-19.663,11.333-38.555,16.223-57.977c-26.026,9.941-26.417,15.843-54.284,15.843s-27.867-16.108-55.733-16.108
	c-27.855,0-27.855,16.108-55.71,16.108c-27.867,0-28.258-5.902-54.284-15.843c4.89,19.421,9.757,38.314,16.223,57.977
	c11.828,35.898,23.966,72.762,28.58,114.343h130.405C325.816,280.576,337.955,243.712,349.782,207.814z M102.86,264.629h41.018
	c-10.965-38.67-25.704-75.477-34.828-115.056h-6.19c-15.372,0-29.811,5.983-40.684,16.844
	c-10.861,10.873-16.844,25.312-16.844,40.684s5.983,29.811,16.844,40.684C73.049,258.646,87.489,264.629,102.86,264.629z"/>
<g>
	<path style="fill:#700D00;" d="M102.858,307.775h42.273c2.986,16.936,4.441,32.998,4.441,48.899c0,4.767,3.862,8.629,8.629,8.629
		h195.596c4.767,0,8.629-3.862,8.629-8.629c0-49.341,13.762-91.127,28.331-135.368c14.356-43.587,29.198-88.658,29.198-140.767
		c0-4.767-3.862-8.629-8.629-8.629h-47.889c-4.767,0-8.629,3.862-8.629,8.629s3.862,8.629,8.629,8.629h39.119
		c-1.482,45.634-14.479,85.101-28.191,126.739c-13.556,41.163-27.547,83.648-29.062,132.137H166.698
		c-0.506-16.392-2.464-33.022-5.938-50.575c-0.8-4.041-4.345-6.953-8.465-6.953h-49.437c-22.281,0-43.228-8.676-58.985-24.432
		c-15.755-15.755-24.431-36.702-24.431-58.984c-0.001-22.281,8.675-43.229,24.43-58.984c15.755-15.756,36.703-24.432,58.986-24.432
		c2.474,0,4.829-1.062,6.467-2.916c1.638-1.855,2.401-4.323,2.095-6.778c-1.053-8.477-1.706-16.668-1.977-24.823h219.475
		c4.767,0,8.629-3.862,8.629-8.629s-3.862-8.629-8.629-8.629H100.674c-4.767,0-8.629,3.862-8.629,8.629
		c0,8.753,0.407,17.44,1.24,26.334c-23.277,2.181-44.877,12.301-61.617,29.04C12.654,154.929,2.183,180.21,2.184,207.101
		c0,26.892,10.472,52.173,29.487,71.188C50.687,297.303,75.967,307.775,102.858,307.775z"/>
	<path style="fill:#700D00;" d="M117.459,147.634c-0.903-3.915-4.389-6.691-8.409-6.691h-6.193c-17.67,0-34.284,6.882-46.78,19.377
		c-12.494,12.495-19.375,29.109-19.375,46.781s6.882,34.286,19.378,46.781c12.497,12.496,29.11,19.377,46.78,19.377h41.023
		c2.705,0,5.252-1.269,6.884-3.426c1.63-2.158,2.155-4.957,1.417-7.558c-4.456-15.707-9.584-31.286-14.544-46.352
		C130.356,193.799,122.826,170.924,117.459,147.634z M102.858,256c-13.061,0-25.34-5.087-34.577-14.322
		c-9.236-9.234-14.322-21.514-14.322-34.577c0-13.062,5.085-25.341,14.321-34.577c9.089-9.091,21.129-14.162,33.961-14.319
		c5.366,21.687,12.29,42.715,19.006,63.113c3.735,11.347,7.567,22.988,11.108,34.681H102.858z"/>
	<path style="fill:#700D00;" d="M182.217,323.107c0.484,4.372,4.179,7.68,8.576,7.68h130.415c4.397,0,8.092-3.308,8.576-7.68
		c4.507-40.69,16.546-77.245,28.19-112.597c6.5-19.74,11.469-38.966,16.404-58.562c0.787-3.123-0.23-6.421-2.637-8.559
		c-2.407-2.139-5.806-2.758-8.81-1.608c-8.149,3.113-13.947,5.875-18.606,8.094c-10.348,4.929-15.071,7.18-32.605,7.18
		c-11.617,0-16.881-3.043-23.545-6.895c-7.469-4.318-15.936-9.213-32.182-9.213s-24.712,4.895-32.18,9.213
		c-6.663,3.853-11.926,6.895-23.54,6.895c-17.53,0-22.253-2.249-32.6-7.18c-4.659-2.219-10.456-4.981-18.605-8.094
		c-3.005-1.149-6.404-0.53-8.81,1.608c-2.407,2.138-3.424,5.439-2.637,8.559c5.127,20.353,9.901,38.81,16.408,58.568
		C165.672,245.869,177.711,282.427,182.217,323.107z M160.249,165.453c11.195,5.334,18.592,8.857,40.023,8.857
		c16.245,0,24.711-4.894,32.179-9.213c6.663-3.853,11.926-6.895,23.542-6.895c11.617,0,16.88,3.043,23.544,6.895
		c7.469,4.318,15.936,9.213,32.184,9.213c21.434,0,28.832-3.524,40.028-8.857c0.51-0.244,1.029-0.491,1.557-0.742
		c-3.556,13.628-7.224,26.739-11.723,40.4c-11.196,33.997-22.75,69.077-28.012,108.416H198.432
		c-5.259-39.329-16.814-74.415-28.012-108.416c-4.496-13.653-8.168-26.767-11.724-40.399
		C159.223,164.963,159.739,165.21,160.249,165.453z"/>
	<path style="fill:#700D00;" d="M503.371,382.562H8.629c-4.767,0-8.629,3.862-8.629,8.629s3.862,8.629,8.629,8.629h4.996
		l4.977,17.417c3.661,12.814,16.968,22.852,30.297,22.852h414.202c13.328,0,26.635-10.039,30.298-22.852l4.976-17.417h4.996
		c4.767,0,8.629-3.862,8.629-8.629S508.138,382.562,503.371,382.562z M476.804,412.496c-1.546,5.409-8.078,10.336-13.703,10.336
		H48.899c-5.626,0-12.157-4.927-13.702-10.336l-3.622-12.676h448.85L476.804,412.496z"/>
</g>
<g>
</g>
<g>
</g>
<g>
</g>
<g>
</g>
<g>
</g>
<g>
</g>
<g>
</g>
<g>
</g>
<g>
</g>
<g>
</g>
<g>
</g>
<g>
</g>
<g>
</g>
<g>
</g>
<g>
</g>
</svg>
