<svg xmlns="http://www.w3.org/2000/svg" version="1.1" xmlns:xlink="http://www.w3.org/1999/xlink" xmlns:svgjs="http://svgjs.dev/svgjs" viewBox="0 0 800 800"><defs><linearGradient x1="50%" y1="0%" x2="50%" y2="100%" id="nnneon-grad"><stop stop-color="hsl(185, 53%, 55%)" stop-opacity="1" offset="0%"></stop><stop stop-color="hsl(0, 73%, 55%)" stop-opacity="1" offset="100%"></stop></linearGradient><filter id="nnneon-filter" x="-100%" y="-100%" width="400%" height="400%" filterUnits="objectBoundingBox" primitiveUnits="userSpaceOnUse" color-interpolation-filters="sRGB">
	<feGaussianBlur stdDeviation="15 22" x="0%" y="0%" width="100%" height="100%" in="SourceGraphic" edgeMode="none" result="blur"></feGaussianBlur></filter><filter id="nnneon-filter2" x="-100%" y="-100%" width="400%" height="400%" filterUnits="objectBoundingBox" primitiveUnits="userSpaceOnUse" color-interpolation-filters="sRGB">
	<feGaussianBlur stdDeviation="13 0" x="0%" y="0%" width="100%" height="100%" in="SourceGraphic" edgeMode="none" result="blur"></feGaussianBlur></filter></defs><g stroke-width="44" stroke="url(#nnneon-grad)" fill="none"><path d="M377.71434120093943 78.58019637682162C391.5047257500755 70.61974815291828 408.4953352850807 70.61974815291828 422.2857198342168 78.5824249457533L667.2143596998027 219.9918093666207C681.0047442489386 227.95225759052403 689.5000490164413 242.66749824630057 689.5000490164413 258.590623263039V541.4093921047738C689.5000490164413 557.3325171215122 681.0047442489386 572.0477577772888 667.2143596998027 580.0104345701237L422.2857198342168 721.4198189909911C408.4953352850807 729.3802672148945 391.5047257500755 729.3802672148945 377.71434120093943 721.4175904220594L132.78570133535362 580.0082060011921C118.99531678621764 572.0477577772888 110.50001201871493 557.3325171215122 110.50001201871493 541.4093921047738V258.590623263039C110.50001201871493 242.66749824630057 118.99531678621764 227.95225759052403 132.78570133535362 219.9895807976891L377.71434120093943 78.58019637682162Z " filter="url(#nnneon-filter)"></path><path d="M411.71434120093943 78.58019637682162C425.5047257500755 70.61974815291828 442.4953352850807 70.61974815291828 456.2857198342168 78.5824249457533L701.2143596998027 219.9918093666207C715.0047442489386 227.95225759052403 723.5000490164413 242.66749824630057 723.5000490164413 258.590623263039V541.4093921047738C723.5000490164413 557.3325171215122 715.0047442489386 572.0477577772888 701.2143596998027 580.0104345701237L456.2857198342168 721.4198189909911C442.4953352850807 729.3802672148945 425.5047257500755 729.3802672148945 411.71434120093943 721.4175904220594L166.78570133535362 580.0082060011921C152.99531678621764 572.0477577772888 144.50001201871493 557.3325171215122 144.50001201871493 541.4093921047738V258.590623263039C144.50001201871493 242.66749824630057 152.99531678621764 227.95225759052403 166.78570133535362 219.9895807976891L411.71434120093943 78.58019637682162Z " filter="url(#nnneon-filter2)" opacity="0.06"></path><path d="M343.71434120093943 78.58019637682162C357.5047257500755 70.61974815291828 374.4953352850807 70.61974815291828 388.2857198342168 78.5824249457533L633.2143596998027 219.9918093666207C647.0047442489386 227.95225759052403 655.5000490164413 242.66749824630057 655.5000490164413 258.590623263039V541.4093921047738C655.5000490164413 557.3325171215122 647.0047442489386 572.0477577772888 633.2143596998027 580.0104345701237L388.2857198342168 721.4198189909911C374.4953352850807 729.3802672148945 357.5047257500755 729.3802672148945 343.71434120093943 721.4175904220594L98.78570133535362 580.0082060011921C84.99531678621764 572.0477577772888 76.50001201871493 557.3325171215122 76.50001201871493 541.4093921047738V258.590623263039C76.50001201871493 242.66749824630057 84.99531678621764 227.95225759052403 98.78570133535362 219.9895807976891L343.71434120093943 78.58019637682162Z " filter="url(#nnneon-filter2)" opacity="0.06"></path><path d="M377.71434120093943 78.58019637682162C391.5047257500755 70.61974815291828 408.4953352850807 70.61974815291828 422.2857198342168 78.5824249457533L667.2143596998027 219.9918093666207C681.0047442489386 227.95225759052403 689.5000490164413 242.66749824630057 689.5000490164413 258.590623263039V541.4093921047738C689.5000490164413 557.3325171215122 681.0047442489386 572.0477577772888 667.2143596998027 580.0104345701237L422.2857198342168 721.4198189909911C408.4953352850807 729.3802672148945 391.5047257500755 729.3802672148945 377.71434120093943 721.4175904220594L132.78570133535362 580.0082060011921C118.99531678621764 572.0477577772888 110.50001201871493 557.3325171215122 110.50001201871493 541.4093921047738V258.590623263039C110.50001201871493 242.66749824630057 118.99531678621764 227.95225759052403 132.78570133535362 219.9895807976891L377.71434120093943 78.58019637682162Z "></path></g></svg>