<svg width="1440" height="1000" viewBox="0 0 1440 1000" fill="none" xmlns="http://www.w3.org/2000/svg">
<rect width="1440" height="1000" fill="white"/>
<rect x="115" y="70" width="850" height="900" rx="20" fill="black"/>
<path d="M1271.46 883.292L1268.73 894H1266.15L1264.69 888.375C1264.67 888.268 1264.63 888.104 1264.58 887.884C1264.53 887.665 1264.48 887.425 1264.42 887.167C1264.37 886.903 1264.32 886.656 1264.28 886.427C1264.24 886.192 1264.21 886.007 1264.2 885.87C1264.18 886.007 1264.15 886.19 1264.11 886.419C1264.07 886.649 1264.02 886.893 1263.97 887.152C1263.92 887.411 1263.87 887.652 1263.82 887.877C1263.77 888.102 1263.74 888.272 1263.71 888.39L1262.26 894H1259.69L1256.95 883.292H1259.19L1260.56 889.137C1260.6 889.312 1260.64 889.522 1260.69 889.767C1260.74 890.011 1260.79 890.267 1260.84 890.536C1260.9 890.799 1260.94 891.056 1260.98 891.305C1261.03 891.549 1261.06 891.761 1261.08 891.942C1261.1 891.756 1261.13 891.542 1261.17 891.297C1261.21 891.048 1261.25 890.797 1261.3 890.543C1261.35 890.284 1261.39 890.045 1261.44 889.825C1261.49 889.605 1261.54 889.427 1261.57 889.291L1263.13 883.292H1265.28L1266.84 889.291C1266.88 889.422 1266.91 889.601 1266.96 889.825C1267.01 890.045 1267.06 890.284 1267.1 890.543C1267.15 890.802 1267.2 891.056 1267.24 891.305C1267.28 891.549 1267.31 891.761 1267.33 891.942C1267.37 891.698 1267.41 891.402 1267.47 891.056C1267.53 890.704 1267.6 890.355 1267.67 890.008C1267.74 889.662 1267.81 889.371 1267.86 889.137L1269.22 883.292H1271.46ZM1276 885.658C1276.76 885.658 1277.41 885.804 1277.96 886.097C1278.51 886.385 1278.93 886.805 1279.23 887.357C1279.52 887.909 1279.67 888.583 1279.67 889.378V890.462H1274.39C1274.42 891.092 1274.6 891.588 1274.96 891.949C1275.31 892.306 1275.81 892.484 1276.44 892.484C1276.96 892.484 1277.44 892.43 1277.87 892.323C1278.31 892.215 1278.75 892.054 1279.21 891.839V893.568C1278.81 893.768 1278.38 893.915 1277.94 894.007C1277.5 894.1 1276.96 894.146 1276.33 894.146C1275.51 894.146 1274.79 893.995 1274.15 893.692C1273.52 893.39 1273.02 892.928 1272.66 892.308C1272.31 891.688 1272.13 890.907 1272.13 889.964C1272.13 889.007 1272.29 888.211 1272.61 887.577C1272.94 886.937 1273.39 886.458 1273.97 886.141C1274.56 885.819 1275.23 885.658 1276 885.658ZM1276.02 887.247C1275.58 887.247 1275.22 887.386 1274.93 887.665C1274.65 887.943 1274.49 888.38 1274.44 888.976H1277.58C1277.57 888.644 1277.51 888.348 1277.4 888.089C1277.28 887.831 1277.11 887.625 1276.88 887.474C1276.66 887.323 1276.37 887.247 1276.02 887.247ZM1283.72 882.604V885.255C1283.72 885.562 1283.71 885.868 1283.69 886.17C1283.68 886.473 1283.66 886.708 1283.64 886.874H1283.72C1283.94 886.537 1284.23 886.251 1284.6 886.017C1284.97 885.777 1285.45 885.658 1286.04 885.658C1286.96 885.658 1287.71 886.017 1288.28 886.734C1288.85 887.452 1289.14 888.504 1289.14 889.891C1289.14 890.824 1289 891.607 1288.74 892.242C1288.48 892.872 1288.11 893.348 1287.63 893.67C1287.16 893.988 1286.61 894.146 1285.99 894.146C1285.39 894.146 1284.91 894.039 1284.57 893.824C1284.22 893.609 1283.94 893.368 1283.72 893.099H1283.57L1283.2 894H1281.49V882.604H1283.72ZM1285.33 887.445C1284.94 887.445 1284.63 887.525 1284.4 887.687C1284.17 887.848 1284 888.089 1283.89 888.412C1283.79 888.734 1283.73 889.142 1283.72 889.635V889.876C1283.72 890.672 1283.84 891.283 1284.07 891.708C1284.31 892.127 1284.74 892.337 1285.36 892.337C1285.82 892.337 1286.18 892.125 1286.45 891.7C1286.72 891.275 1286.86 890.663 1286.86 889.862C1286.86 889.061 1286.72 888.458 1286.45 888.053C1286.17 887.647 1285.8 887.445 1285.33 887.445ZM1301.61 894L1300.83 891.451H1296.93L1296.15 894H1293.71L1297.49 883.248H1300.26L1304.06 894H1301.61ZM1300.29 889.547L1299.51 887.057C1299.47 886.891 1299.4 886.678 1299.32 886.419C1299.24 886.156 1299.16 885.89 1299.07 885.621C1299 885.348 1298.93 885.111 1298.88 884.911C1298.84 885.111 1298.77 885.36 1298.68 885.658C1298.6 885.951 1298.52 886.229 1298.44 886.493C1298.36 886.756 1298.3 886.944 1298.27 887.057L1297.5 889.547H1300.29ZM1309.79 885.658C1310.71 885.658 1311.46 886.017 1312.02 886.734C1312.6 887.452 1312.88 888.504 1312.88 889.891C1312.88 890.819 1312.75 891.6 1312.48 892.235C1312.21 892.865 1311.84 893.341 1311.36 893.663C1310.89 893.985 1310.35 894.146 1309.73 894.146C1309.34 894.146 1309 894.098 1308.71 894C1308.43 893.897 1308.19 893.768 1307.99 893.612C1307.79 893.451 1307.61 893.28 1307.47 893.099H1307.35C1307.39 893.294 1307.42 893.495 1307.44 893.7C1307.46 893.905 1307.47 894.105 1307.47 894.3V897.604H1305.23V885.812H1307.05L1307.37 886.874H1307.47C1307.61 886.654 1307.79 886.451 1308 886.266C1308.21 886.08 1308.46 885.934 1308.76 885.826C1309.06 885.714 1309.4 885.658 1309.79 885.658ZM1309.07 887.445C1308.68 887.445 1308.37 887.525 1308.14 887.687C1307.91 887.848 1307.74 888.089 1307.64 888.412C1307.53 888.734 1307.48 889.142 1307.47 889.635V889.876C1307.47 890.404 1307.52 890.851 1307.61 891.217C1307.72 891.583 1307.89 891.861 1308.12 892.052C1308.36 892.242 1308.69 892.337 1309.1 892.337C1309.44 892.337 1309.72 892.242 1309.94 892.052C1310.16 891.861 1310.33 891.583 1310.43 891.217C1310.55 890.846 1310.6 890.394 1310.6 889.862C1310.6 889.061 1310.48 888.458 1310.23 888.053C1309.98 887.647 1309.59 887.445 1309.07 887.445ZM1319.28 885.658C1320.21 885.658 1320.95 886.017 1321.52 886.734C1322.09 887.452 1322.37 888.504 1322.37 889.891C1322.37 890.819 1322.24 891.6 1321.97 892.235C1321.7 892.865 1321.33 893.341 1320.86 893.663C1320.38 893.985 1319.84 894.146 1319.22 894.146C1318.83 894.146 1318.49 894.098 1318.21 894C1317.92 893.897 1317.68 893.768 1317.48 893.612C1317.28 893.451 1317.11 893.28 1316.96 893.099H1316.84C1316.88 893.294 1316.91 893.495 1316.93 893.7C1316.95 893.905 1316.96 894.105 1316.96 894.3V897.604H1314.73V885.812H1316.54L1316.86 886.874H1316.96C1317.11 886.654 1317.29 886.451 1317.5 886.266C1317.71 886.08 1317.96 885.934 1318.25 885.826C1318.55 885.714 1318.89 885.658 1319.28 885.658ZM1318.56 887.445C1318.17 887.445 1317.86 887.525 1317.63 887.687C1317.4 887.848 1317.24 888.089 1317.13 888.412C1317.03 888.734 1316.97 889.142 1316.96 889.635V889.876C1316.96 890.404 1317.01 890.851 1317.11 891.217C1317.21 891.583 1317.38 891.861 1317.61 892.052C1317.85 892.242 1318.18 892.337 1318.59 892.337C1318.94 892.337 1319.22 892.242 1319.44 892.052C1319.66 891.861 1319.82 891.583 1319.93 891.217C1320.04 890.846 1320.1 890.394 1320.1 889.862C1320.1 889.061 1319.97 888.458 1319.72 888.053C1319.47 887.647 1319.09 887.445 1318.56 887.445Z" fill="black"/>
<rect x="1215" y="720" width="150" height="150" rx="16" fill="#585858"/>
<path d="M1271.46 683.292L1268.73 694H1266.15L1264.69 688.375C1264.67 688.268 1264.63 688.104 1264.58 687.884C1264.53 687.665 1264.48 687.425 1264.42 687.167C1264.37 686.903 1264.32 686.656 1264.28 686.427C1264.24 686.192 1264.21 686.007 1264.2 685.87C1264.18 686.007 1264.15 686.19 1264.11 686.419C1264.07 686.649 1264.02 686.893 1263.97 687.152C1263.92 687.411 1263.87 687.652 1263.82 687.877C1263.77 688.102 1263.74 688.272 1263.71 688.39L1262.26 694H1259.69L1256.95 683.292H1259.19L1260.56 689.137C1260.6 689.312 1260.64 689.522 1260.69 689.767C1260.74 690.011 1260.79 690.267 1260.84 690.536C1260.9 690.799 1260.94 691.056 1260.98 691.305C1261.03 691.549 1261.06 691.761 1261.08 691.942C1261.1 691.756 1261.13 691.542 1261.17 691.297C1261.21 691.048 1261.25 690.797 1261.3 690.543C1261.35 690.284 1261.39 690.045 1261.44 689.825C1261.49 689.605 1261.54 689.427 1261.57 689.291L1263.13 683.292H1265.28L1266.84 689.291C1266.88 689.422 1266.91 689.601 1266.96 689.825C1267.01 690.045 1267.06 690.284 1267.1 690.543C1267.15 690.802 1267.2 691.056 1267.24 691.305C1267.28 691.549 1267.31 691.761 1267.33 691.942C1267.37 691.698 1267.41 691.402 1267.47 691.056C1267.53 690.704 1267.6 690.355 1267.67 690.008C1267.74 689.662 1267.81 689.371 1267.86 689.137L1269.22 683.292H1271.46ZM1276 685.658C1276.76 685.658 1277.41 685.804 1277.96 686.097C1278.51 686.385 1278.93 686.805 1279.23 687.357C1279.52 687.909 1279.67 688.583 1279.67 689.378V690.462H1274.39C1274.42 691.092 1274.6 691.588 1274.96 691.949C1275.31 692.306 1275.81 692.484 1276.44 692.484C1276.96 692.484 1277.44 692.43 1277.87 692.323C1278.31 692.215 1278.75 692.054 1279.21 691.839V693.568C1278.81 693.768 1278.38 693.915 1277.94 694.007C1277.5 694.1 1276.96 694.146 1276.33 694.146C1275.51 694.146 1274.79 693.995 1274.15 693.692C1273.52 693.39 1273.02 692.928 1272.66 692.308C1272.31 691.688 1272.13 690.907 1272.13 689.964C1272.13 689.007 1272.29 688.211 1272.61 687.577C1272.94 686.937 1273.39 686.458 1273.97 686.141C1274.56 685.819 1275.23 685.658 1276 685.658ZM1276.02 687.247C1275.58 687.247 1275.22 687.386 1274.93 687.665C1274.65 687.943 1274.49 688.38 1274.44 688.976H1277.58C1277.57 688.644 1277.51 688.348 1277.4 688.089C1277.28 687.831 1277.11 687.625 1276.88 687.474C1276.66 687.323 1276.37 687.247 1276.02 687.247ZM1283.72 682.604V685.255C1283.72 685.562 1283.71 685.868 1283.69 686.17C1283.68 686.473 1283.66 686.708 1283.64 686.874H1283.72C1283.94 686.537 1284.23 686.251 1284.6 686.017C1284.97 685.777 1285.45 685.658 1286.04 685.658C1286.96 685.658 1287.71 686.017 1288.28 686.734C1288.85 687.452 1289.14 688.504 1289.14 689.891C1289.14 690.824 1289 691.607 1288.74 692.242C1288.48 692.872 1288.11 693.348 1287.63 693.67C1287.16 693.988 1286.61 694.146 1285.99 694.146C1285.39 694.146 1284.91 694.039 1284.57 693.824C1284.22 693.609 1283.94 693.368 1283.72 693.099H1283.57L1283.2 694H1281.49V682.604H1283.72ZM1285.33 687.445C1284.94 687.445 1284.63 687.525 1284.4 687.687C1284.17 687.848 1284 688.089 1283.89 688.412C1283.79 688.734 1283.73 689.142 1283.72 689.635V689.876C1283.72 690.672 1283.84 691.283 1284.07 691.708C1284.31 692.127 1284.74 692.337 1285.36 692.337C1285.82 692.337 1286.18 692.125 1286.45 691.7C1286.72 691.275 1286.86 690.663 1286.86 689.862C1286.86 689.061 1286.72 688.458 1286.45 688.053C1286.17 687.647 1285.8 687.445 1285.33 687.445ZM1301.61 694L1300.83 691.451H1296.93L1296.15 694H1293.71L1297.49 683.248H1300.26L1304.06 694H1301.61ZM1300.29 689.547L1299.51 687.057C1299.47 686.891 1299.4 686.678 1299.32 686.419C1299.24 686.156 1299.16 685.89 1299.07 685.621C1299 685.348 1298.93 685.111 1298.88 684.911C1298.84 685.111 1298.77 685.36 1298.68 685.658C1298.6 685.951 1298.52 686.229 1298.44 686.493C1298.36 686.756 1298.3 686.944 1298.27 687.057L1297.5 689.547H1300.29ZM1309.79 685.658C1310.71 685.658 1311.46 686.017 1312.02 686.734C1312.6 687.452 1312.88 688.504 1312.88 689.891C1312.88 690.819 1312.75 691.6 1312.48 692.235C1312.21 692.865 1311.84 693.341 1311.36 693.663C1310.89 693.985 1310.35 694.146 1309.73 694.146C1309.34 694.146 1309 694.098 1308.71 694C1308.43 693.897 1308.19 693.768 1307.99 693.612C1307.79 693.451 1307.61 693.28 1307.47 693.099H1307.35C1307.39 693.294 1307.42 693.495 1307.44 693.7C1307.46 693.905 1307.47 694.105 1307.47 694.3V697.604H1305.23V685.812H1307.05L1307.37 686.874H1307.47C1307.61 686.654 1307.79 686.451 1308 686.266C1308.21 686.08 1308.46 685.934 1308.76 685.826C1309.06 685.714 1309.4 685.658 1309.79 685.658ZM1309.07 687.445C1308.68 687.445 1308.37 687.525 1308.14 687.687C1307.91 687.848 1307.74 688.089 1307.64 688.412C1307.53 688.734 1307.48 689.142 1307.47 689.635V689.876C1307.47 690.404 1307.52 690.851 1307.61 691.217C1307.72 691.583 1307.89 691.861 1308.12 692.052C1308.36 692.242 1308.69 692.337 1309.1 692.337C1309.44 692.337 1309.72 692.242 1309.94 692.052C1310.16 691.861 1310.33 691.583 1310.43 691.217C1310.55 690.846 1310.6 690.394 1310.6 689.862C1310.6 689.061 1310.48 688.458 1310.23 688.053C1309.98 687.647 1309.59 687.445 1309.07 687.445ZM1319.28 685.658C1320.21 685.658 1320.95 686.017 1321.52 686.734C1322.09 687.452 1322.37 688.504 1322.37 689.891C1322.37 690.819 1322.24 691.6 1321.97 692.235C1321.7 692.865 1321.33 693.341 1320.86 693.663C1320.38 693.985 1319.84 694.146 1319.22 694.146C1318.83 694.146 1318.49 694.098 1318.21 694C1317.92 693.897 1317.68 693.768 1317.48 693.612C1317.28 693.451 1317.11 693.28 1316.96 693.099H1316.84C1316.88 693.294 1316.91 693.495 1316.93 693.7C1316.95 693.905 1316.96 694.105 1316.96 694.3V697.604H1314.73V685.812H1316.54L1316.86 686.874H1316.96C1317.11 686.654 1317.29 686.451 1317.5 686.266C1317.71 686.08 1317.96 685.934 1318.25 685.826C1318.55 685.714 1318.89 685.658 1319.28 685.658ZM1318.56 687.445C1318.17 687.445 1317.86 687.525 1317.63 687.687C1317.4 687.848 1317.24 688.089 1317.13 688.412C1317.03 688.734 1316.97 689.142 1316.96 689.635V689.876C1316.96 690.404 1317.01 690.851 1317.11 691.217C1317.21 691.583 1317.38 691.861 1317.61 692.052C1317.85 692.242 1318.18 692.337 1318.59 692.337C1318.94 692.337 1319.22 692.242 1319.44 692.052C1319.66 691.861 1319.82 691.583 1319.93 691.217C1320.04 690.846 1320.1 690.394 1320.1 689.862C1320.1 689.061 1319.97 688.458 1319.72 688.053C1319.47 687.647 1319.09 687.445 1318.56 687.445Z" fill="black"/>
<rect x="1215" y="520" width="150" height="150" rx="16" fill="#585858"/>
<path d="M1283.55 491.026C1283.55 491.661 1283.4 492.213 1283.09 492.682C1282.79 493.15 1282.34 493.512 1281.75 493.766C1281.16 494.02 1280.45 494.146 1279.61 494.146C1279.24 494.146 1278.87 494.122 1278.52 494.073C1278.16 494.024 1277.82 493.954 1277.5 493.861C1277.18 493.763 1276.87 493.644 1276.57 493.502V491.393C1277.08 491.617 1277.61 491.82 1278.16 492C1278.7 492.181 1279.25 492.271 1279.78 492.271C1280.15 492.271 1280.45 492.223 1280.68 492.125C1280.91 492.027 1281.07 491.893 1281.17 491.722C1281.28 491.551 1281.33 491.356 1281.33 491.136C1281.33 490.868 1281.24 490.638 1281.06 490.448C1280.88 490.257 1280.63 490.079 1280.31 489.913C1280 489.747 1279.64 489.569 1279.25 489.378C1279 489.261 1278.73 489.12 1278.44 488.954C1278.14 488.783 1277.86 488.575 1277.6 488.331C1277.34 488.087 1277.12 487.792 1276.95 487.445C1276.78 487.093 1276.7 486.673 1276.7 486.185C1276.7 485.545 1276.85 484.999 1277.14 484.544C1277.43 484.09 1277.85 483.744 1278.39 483.504C1278.94 483.26 1279.58 483.138 1280.32 483.138C1280.88 483.138 1281.41 483.204 1281.91 483.336C1282.42 483.463 1282.95 483.648 1283.5 483.893L1282.77 485.658C1282.28 485.458 1281.84 485.304 1281.45 485.196C1281.05 485.084 1280.66 485.028 1280.25 485.028C1279.97 485.028 1279.73 485.074 1279.53 485.167C1279.33 485.255 1279.17 485.382 1279.07 485.548C1278.97 485.709 1278.92 485.897 1278.92 486.112C1278.92 486.366 1278.99 486.581 1279.14 486.756C1279.29 486.927 1279.51 487.093 1279.81 487.254C1280.11 487.416 1280.49 487.604 1280.94 487.818C1281.49 488.077 1281.95 488.348 1282.34 488.631C1282.73 488.91 1283.03 489.239 1283.24 489.62C1283.45 489.996 1283.55 490.465 1283.55 491.026ZM1287.55 485.812V494H1285.32V485.812H1287.55ZM1286.44 482.604C1286.77 482.604 1287.06 482.682 1287.3 482.838C1287.54 482.989 1287.66 483.275 1287.66 483.695C1287.66 484.11 1287.54 484.398 1287.3 484.559C1287.06 484.715 1286.77 484.793 1286.44 484.793C1286.1 484.793 1285.82 484.715 1285.58 484.559C1285.34 484.398 1285.22 484.11 1285.22 483.695C1285.22 483.275 1285.34 482.989 1285.58 482.838C1285.82 482.682 1286.1 482.604 1286.44 482.604ZM1293.35 492.367C1293.6 492.367 1293.84 492.342 1294.06 492.293C1294.3 492.245 1294.53 492.184 1294.76 492.11V493.773C1294.52 493.88 1294.22 493.968 1293.87 494.037C1293.52 494.11 1293.13 494.146 1292.71 494.146C1292.22 494.146 1291.78 494.068 1291.39 493.912C1291.01 493.751 1290.7 493.475 1290.48 493.084C1290.26 492.689 1290.15 492.14 1290.15 491.437V487.489H1289.08V486.544L1290.31 485.797L1290.95 484.068H1292.38V485.812H1294.67V487.489H1292.38V491.437C1292.38 491.749 1292.47 491.983 1292.64 492.14C1292.82 492.291 1293.06 492.367 1293.35 492.367ZM1299.8 485.658C1300.56 485.658 1301.21 485.804 1301.76 486.097C1302.3 486.385 1302.72 486.805 1303.02 487.357C1303.32 487.909 1303.47 488.583 1303.47 489.378V490.462H1298.19C1298.21 491.092 1298.4 491.588 1298.75 491.949C1299.11 492.306 1299.6 492.484 1300.23 492.484C1300.75 492.484 1301.23 492.43 1301.67 492.323C1302.1 492.215 1302.55 492.054 1303.01 491.839V493.568C1302.6 493.768 1302.18 493.915 1301.73 494.007C1301.29 494.1 1300.76 494.146 1300.13 494.146C1299.31 494.146 1298.58 493.995 1297.95 493.692C1297.32 493.39 1296.82 492.928 1296.46 492.308C1296.1 491.688 1295.93 490.907 1295.93 489.964C1295.93 489.007 1296.09 488.211 1296.41 487.577C1296.74 486.937 1297.19 486.458 1297.77 486.141C1298.35 485.819 1299.03 485.658 1299.8 485.658ZM1299.81 487.247C1299.38 487.247 1299.02 487.386 1298.73 487.665C1298.45 487.943 1298.28 488.38 1298.24 488.976H1301.37C1301.37 488.644 1301.31 488.348 1301.19 488.089C1301.08 487.831 1300.91 487.625 1300.68 487.474C1300.45 487.323 1300.17 487.247 1299.81 487.247Z" fill="black"/>
<rect x="1215" y="320" width="150" height="150" rx="16" fill="#585858"/>
<path d="M1283.55 291.026C1283.55 291.661 1283.4 292.213 1283.09 292.682C1282.79 293.15 1282.34 293.512 1281.75 293.766C1281.16 294.02 1280.45 294.146 1279.61 294.146C1279.24 294.146 1278.87 294.122 1278.52 294.073C1278.16 294.024 1277.82 293.954 1277.5 293.861C1277.18 293.763 1276.87 293.644 1276.57 293.502V291.393C1277.08 291.617 1277.61 291.82 1278.16 292C1278.7 292.181 1279.25 292.271 1279.78 292.271C1280.15 292.271 1280.45 292.223 1280.68 292.125C1280.91 292.027 1281.07 291.893 1281.17 291.722C1281.28 291.551 1281.33 291.356 1281.33 291.136C1281.33 290.868 1281.24 290.638 1281.06 290.448C1280.88 290.257 1280.63 290.079 1280.31 289.913C1280 289.747 1279.64 289.569 1279.25 289.378C1279 289.261 1278.73 289.12 1278.44 288.954C1278.14 288.783 1277.86 288.575 1277.6 288.331C1277.34 288.087 1277.12 287.792 1276.95 287.445C1276.78 287.093 1276.7 286.673 1276.7 286.185C1276.7 285.545 1276.85 284.999 1277.14 284.544C1277.43 284.09 1277.85 283.744 1278.39 283.504C1278.94 283.26 1279.58 283.138 1280.32 283.138C1280.88 283.138 1281.41 283.204 1281.91 283.336C1282.42 283.463 1282.95 283.648 1283.5 283.893L1282.77 285.658C1282.28 285.458 1281.84 285.304 1281.45 285.196C1281.05 285.084 1280.66 285.028 1280.25 285.028C1279.97 285.028 1279.73 285.074 1279.53 285.167C1279.33 285.255 1279.17 285.382 1279.07 285.548C1278.97 285.709 1278.92 285.897 1278.92 286.112C1278.92 286.366 1278.99 286.581 1279.14 286.756C1279.29 286.927 1279.51 287.093 1279.81 287.254C1280.11 287.416 1280.49 287.604 1280.94 287.818C1281.49 288.077 1281.95 288.348 1282.34 288.631C1282.73 288.91 1283.03 289.239 1283.24 289.62C1283.45 289.996 1283.55 290.465 1283.55 291.026ZM1287.55 285.812V294H1285.32V285.812H1287.55ZM1286.44 282.604C1286.77 282.604 1287.06 282.682 1287.3 282.838C1287.54 282.989 1287.66 283.275 1287.66 283.695C1287.66 284.11 1287.54 284.398 1287.3 284.559C1287.06 284.715 1286.77 284.793 1286.44 284.793C1286.1 284.793 1285.82 284.715 1285.58 284.559C1285.34 284.398 1285.22 284.11 1285.22 283.695C1285.22 283.275 1285.34 282.989 1285.58 282.838C1285.82 282.682 1286.1 282.604 1286.44 282.604ZM1293.35 292.367C1293.6 292.367 1293.84 292.342 1294.06 292.293C1294.3 292.245 1294.53 292.184 1294.76 292.11V293.773C1294.52 293.88 1294.22 293.968 1293.87 294.037C1293.52 294.11 1293.13 294.146 1292.71 294.146C1292.22 294.146 1291.78 294.068 1291.39 293.912C1291.01 293.751 1290.7 293.475 1290.48 293.084C1290.26 292.689 1290.15 292.14 1290.15 291.437V287.489H1289.08V286.544L1290.31 285.797L1290.95 284.068H1292.38V285.812H1294.67V287.489H1292.38V291.437C1292.38 291.749 1292.47 291.983 1292.64 292.14C1292.82 292.291 1293.06 292.367 1293.35 292.367ZM1299.8 285.658C1300.56 285.658 1301.21 285.804 1301.76 286.097C1302.3 286.385 1302.72 286.805 1303.02 287.357C1303.32 287.909 1303.47 288.583 1303.47 289.378V290.462H1298.19C1298.21 291.092 1298.4 291.588 1298.75 291.949C1299.11 292.306 1299.6 292.484 1300.23 292.484C1300.75 292.484 1301.23 292.43 1301.67 292.323C1302.1 292.215 1302.55 292.054 1303.01 291.839V293.568C1302.6 293.768 1302.18 293.915 1301.73 294.007C1301.29 294.1 1300.76 294.146 1300.13 294.146C1299.31 294.146 1298.58 293.995 1297.95 293.692C1297.32 293.39 1296.82 292.928 1296.46 292.308C1296.1 291.688 1295.93 290.907 1295.93 289.964C1295.93 289.007 1296.09 288.211 1296.41 287.577C1296.74 286.937 1297.19 286.458 1297.77 286.141C1298.35 285.819 1299.03 285.658 1299.8 285.658ZM1299.81 287.247C1299.38 287.247 1299.02 287.386 1298.73 287.665C1298.45 287.943 1298.28 288.38 1298.24 288.976H1301.37C1301.37 288.644 1301.31 288.348 1301.19 288.089C1301.08 287.831 1300.91 287.625 1300.68 287.474C1300.45 287.323 1300.17 287.247 1299.81 287.247Z" fill="black"/>
<rect x="1215" y="120" width="150" height="150" rx="16" fill="#585858"/>
<path d="M190.627 883.292C191.599 883.292 192.4 883.409 193.03 883.644C193.665 883.878 194.136 884.232 194.443 884.706C194.751 885.179 194.905 885.777 194.905 886.5C194.905 886.988 194.812 887.416 194.626 887.782C194.441 888.148 194.197 888.458 193.894 888.712C193.591 888.966 193.264 889.173 192.913 889.334L196.062 894H193.542L190.986 889.891H189.778V894H187.507V883.292H190.627ZM190.466 885.152H189.778V888.045H190.51C191.262 888.045 191.799 887.921 192.122 887.672C192.449 887.418 192.612 887.047 192.612 886.559C192.612 886.051 192.437 885.689 192.085 885.475C191.738 885.26 191.199 885.152 190.466 885.152ZM200.61 885.658C201.367 885.658 202.019 885.804 202.566 886.097C203.113 886.385 203.535 886.805 203.833 887.357C204.131 887.909 204.28 888.583 204.28 889.378V890.462H198.999C199.023 891.092 199.211 891.588 199.563 891.949C199.919 892.306 200.413 892.484 201.042 892.484C201.565 892.484 202.043 892.43 202.478 892.323C202.913 892.215 203.359 892.054 203.818 891.839V893.568C203.413 893.768 202.988 893.915 202.544 894.007C202.104 894.1 201.57 894.146 200.94 894.146C200.12 894.146 199.392 893.995 198.757 893.692C198.127 893.39 197.632 892.928 197.271 892.308C196.914 891.688 196.736 890.907 196.736 889.964C196.736 889.007 196.897 888.211 197.219 887.577C197.546 886.937 198 886.458 198.582 886.141C199.163 885.819 199.839 885.658 200.61 885.658ZM200.625 887.247C200.19 887.247 199.829 887.386 199.541 887.665C199.258 887.943 199.094 888.38 199.05 888.976H202.185C202.18 888.644 202.119 888.348 202.002 888.089C201.89 887.831 201.719 887.625 201.489 887.474C201.265 887.323 200.977 887.247 200.625 887.247ZM210.623 887.489H208.689V894H206.455V887.489H205.225V886.412L206.455 885.812V885.211C206.455 884.513 206.572 883.971 206.807 883.585C207.046 883.194 207.38 882.921 207.81 882.765C208.245 882.604 208.757 882.523 209.348 882.523C209.783 882.523 210.178 882.56 210.535 882.633C210.891 882.701 211.182 882.779 211.406 882.867L210.835 884.508C210.664 884.454 210.479 884.405 210.278 884.361C210.078 884.317 209.849 884.295 209.59 884.295C209.277 884.295 209.048 884.391 208.901 884.581C208.76 884.767 208.689 885.006 208.689 885.299V885.812H210.623V887.489ZM215.288 885.658C216.045 885.658 216.697 885.804 217.244 886.097C217.791 886.385 218.213 886.805 218.511 887.357C218.809 887.909 218.958 888.583 218.958 889.378V890.462H213.677C213.701 891.092 213.889 891.588 214.241 891.949C214.597 892.306 215.09 892.484 215.72 892.484C216.243 892.484 216.721 892.43 217.156 892.323C217.59 892.215 218.037 892.054 218.496 891.839V893.568C218.091 893.768 217.666 893.915 217.222 894.007C216.782 894.1 216.248 894.146 215.618 894.146C214.797 894.146 214.07 893.995 213.435 893.692C212.805 893.39 212.31 892.928 211.948 892.308C211.592 891.688 211.414 890.907 211.414 889.964C211.414 889.007 211.575 888.211 211.897 887.577C212.224 886.937 212.678 886.458 213.259 886.141C213.84 885.819 214.517 885.658 215.288 885.658ZM215.303 887.247C214.868 887.247 214.507 887.386 214.219 887.665C213.936 887.943 213.772 888.38 213.728 888.976H216.863C216.858 888.644 216.797 888.348 216.68 888.089C216.567 887.831 216.396 887.625 216.167 887.474C215.942 887.323 215.654 887.247 215.303 887.247ZM225.344 885.658C225.457 885.658 225.586 885.665 225.732 885.68C225.884 885.689 226.006 885.704 226.099 885.724L225.93 887.818C225.857 887.794 225.752 887.777 225.615 887.767C225.483 887.752 225.369 887.745 225.271 887.745C224.983 887.745 224.702 887.782 224.429 887.855C224.16 887.928 223.918 888.048 223.704 888.214C223.489 888.375 223.318 888.59 223.191 888.858C223.069 889.122 223.008 889.447 223.008 889.833V894H220.774V885.812H222.466L222.795 887.188H222.905C223.066 886.91 223.267 886.656 223.506 886.427C223.75 886.192 224.026 886.007 224.333 885.87C224.646 885.729 224.983 885.658 225.344 885.658ZM230.962 885.658C231.719 885.658 232.371 885.804 232.917 886.097C233.464 886.385 233.887 886.805 234.185 887.357C234.482 887.909 234.631 888.583 234.631 889.378V890.462H229.351C229.375 891.092 229.563 891.588 229.915 891.949C230.271 892.306 230.764 892.484 231.394 892.484C231.917 892.484 232.395 892.43 232.83 892.323C233.264 892.215 233.711 892.054 234.17 891.839V893.568C233.765 893.768 233.34 893.915 232.896 894.007C232.456 894.1 231.921 894.146 231.292 894.146C230.471 894.146 229.744 893.995 229.109 893.692C228.479 893.39 227.983 892.928 227.622 892.308C227.266 891.688 227.087 890.907 227.087 889.964C227.087 889.007 227.249 888.211 227.571 887.577C227.898 886.937 228.352 886.458 228.933 886.141C229.514 885.819 230.19 885.658 230.962 885.658ZM230.977 887.247C230.542 887.247 230.181 887.386 229.893 887.665C229.609 887.943 229.446 888.38 229.402 888.976H232.537C232.532 888.644 232.471 888.348 232.354 888.089C232.241 887.831 232.07 887.625 231.841 887.474C231.616 887.323 231.328 887.247 230.977 887.247ZM241.099 885.658C241.973 885.658 242.676 885.897 243.208 886.375C243.74 886.849 244.006 887.611 244.006 888.661V894H241.772V889.217C241.772 888.631 241.665 888.189 241.45 887.892C241.24 887.594 240.908 887.445 240.454 887.445C239.771 887.445 239.304 887.677 239.055 888.141C238.806 888.604 238.682 889.273 238.682 890.147V894H236.448V885.812H238.154L238.455 886.859H238.579C238.755 886.576 238.972 886.346 239.231 886.17C239.495 885.995 239.785 885.865 240.103 885.782C240.425 885.699 240.757 885.658 241.099 885.658ZM249.631 894.146C248.821 894.146 248.13 894 247.559 893.707C246.987 893.409 246.553 892.95 246.255 892.33C245.957 891.71 245.808 890.917 245.808 889.95C245.808 888.949 245.977 888.133 246.313 887.503C246.655 886.869 247.126 886.402 247.727 886.104C248.333 885.807 249.033 885.658 249.829 885.658C250.396 885.658 250.884 885.714 251.294 885.826C251.709 885.934 252.07 886.063 252.378 886.214L251.719 887.943C251.367 887.801 251.04 887.687 250.737 887.599C250.435 887.506 250.132 887.459 249.829 887.459C249.438 887.459 249.114 887.552 248.855 887.738C248.596 887.918 248.403 888.192 248.276 888.558C248.149 888.924 248.086 889.383 248.086 889.935C248.086 890.477 248.154 890.926 248.291 891.283C248.428 891.639 248.625 891.905 248.884 892.081C249.143 892.252 249.458 892.337 249.829 892.337C250.293 892.337 250.706 892.276 251.067 892.154C251.428 892.027 251.78 891.852 252.122 891.627V893.539C251.78 893.753 251.421 893.907 251.045 894C250.674 894.098 250.203 894.146 249.631 894.146ZM257.402 885.658C258.159 885.658 258.811 885.804 259.358 886.097C259.905 886.385 260.327 886.805 260.625 887.357C260.923 887.909 261.072 888.583 261.072 889.378V890.462H255.791C255.815 891.092 256.003 891.588 256.355 891.949C256.711 892.306 257.205 892.484 257.834 892.484C258.357 892.484 258.835 892.43 259.27 892.323C259.705 892.215 260.151 892.054 260.61 891.839V893.568C260.205 893.768 259.78 893.915 259.336 894.007C258.896 894.1 258.362 894.146 257.732 894.146C256.912 894.146 256.184 893.995 255.549 893.692C254.919 893.39 254.424 892.928 254.062 892.308C253.706 891.688 253.528 890.907 253.528 889.964C253.528 889.007 253.689 888.211 254.011 887.577C254.338 886.937 254.792 886.458 255.374 886.141C255.955 885.819 256.631 885.658 257.402 885.658ZM257.417 887.247C256.982 887.247 256.621 887.386 256.333 887.665C256.05 887.943 255.886 888.38 255.842 888.976H258.977C258.972 888.644 258.911 888.348 258.794 888.089C258.682 887.831 258.511 887.625 258.281 887.474C258.057 887.323 257.769 887.247 257.417 887.247ZM273.281 891.026C273.281 891.661 273.127 892.213 272.82 892.682C272.512 893.15 272.063 893.512 271.472 893.766C270.886 894.02 270.173 894.146 269.333 894.146C268.962 894.146 268.599 894.122 268.242 894.073C267.891 894.024 267.551 893.954 267.224 893.861C266.902 893.763 266.594 893.644 266.301 893.502V891.393C266.809 891.617 267.336 891.82 267.883 892C268.43 892.181 268.972 892.271 269.509 892.271C269.88 892.271 270.178 892.223 270.403 892.125C270.632 892.027 270.798 891.893 270.901 891.722C271.003 891.551 271.055 891.356 271.055 891.136C271.055 890.868 270.964 890.638 270.784 890.448C270.603 890.257 270.354 890.079 270.037 889.913C269.724 889.747 269.37 889.569 268.975 889.378C268.726 889.261 268.455 889.12 268.162 888.954C267.869 888.783 267.59 888.575 267.327 888.331C267.063 888.087 266.846 887.792 266.675 887.445C266.509 887.093 266.426 886.673 266.426 886.185C266.426 885.545 266.572 884.999 266.865 884.544C267.158 884.09 267.576 883.744 268.118 883.504C268.665 883.26 269.309 883.138 270.051 883.138C270.608 883.138 271.138 883.204 271.641 883.336C272.148 883.463 272.678 883.648 273.23 883.893L272.498 885.658C272.004 885.458 271.562 885.304 271.172 885.196C270.781 885.084 270.383 885.028 269.978 885.028C269.695 885.028 269.453 885.074 269.253 885.167C269.053 885.255 268.901 885.382 268.799 885.548C268.696 885.709 268.645 885.897 268.645 886.112C268.645 886.366 268.718 886.581 268.865 886.756C269.016 886.927 269.241 887.093 269.539 887.254C269.841 887.416 270.217 887.604 270.667 887.818C271.213 888.077 271.68 888.348 272.065 888.631C272.456 888.91 272.756 889.239 272.966 889.62C273.176 889.996 273.281 890.465 273.281 891.026ZM277.28 885.812V894H275.046V885.812H277.28ZM276.167 882.604C276.499 882.604 276.785 882.682 277.024 882.838C277.263 882.989 277.383 883.275 277.383 883.695C277.383 884.11 277.263 884.398 277.024 884.559C276.785 884.715 276.499 884.793 276.167 884.793C275.83 884.793 275.542 884.715 275.303 884.559C275.068 884.398 274.951 884.11 274.951 883.695C274.951 883.275 275.068 882.989 275.303 882.838C275.542 882.682 275.83 882.604 276.167 882.604ZM283.081 892.367C283.325 892.367 283.562 892.342 283.792 892.293C284.026 892.245 284.258 892.184 284.487 892.11V893.773C284.248 893.88 283.95 893.968 283.594 894.037C283.242 894.11 282.856 894.146 282.437 894.146C281.948 894.146 281.509 894.068 281.118 893.912C280.732 893.751 280.427 893.475 280.203 893.084C279.983 892.689 279.873 892.14 279.873 891.437V887.489H278.804V886.544L280.034 885.797L280.679 884.068H282.107V885.812H284.399V887.489H282.107V891.437C282.107 891.749 282.195 891.983 282.371 892.14C282.551 892.291 282.788 892.367 283.081 892.367ZM289.526 885.658C290.283 885.658 290.935 885.804 291.482 886.097C292.029 886.385 292.451 886.805 292.749 887.357C293.047 887.909 293.196 888.583 293.196 889.378V890.462H287.915C287.939 891.092 288.127 891.588 288.479 891.949C288.835 892.306 289.329 892.484 289.958 892.484C290.481 892.484 290.959 892.43 291.394 892.323C291.829 892.215 292.275 892.054 292.734 891.839V893.568C292.329 893.768 291.904 893.915 291.46 894.007C291.021 894.1 290.486 894.146 289.856 894.146C289.036 894.146 288.308 893.995 287.673 893.692C287.043 893.39 286.548 892.928 286.187 892.308C285.83 891.688 285.652 890.907 285.652 889.964C285.652 889.007 285.813 888.211 286.135 887.577C286.462 886.937 286.917 886.458 287.498 886.141C288.079 885.819 288.755 885.658 289.526 885.658ZM289.541 887.247C289.106 887.247 288.745 887.386 288.457 887.665C288.174 887.943 288.01 888.38 287.966 888.976H291.101C291.096 888.644 291.035 888.348 290.918 888.089C290.806 887.831 290.635 887.625 290.405 887.474C290.181 887.323 289.893 887.247 289.541 887.247Z" fill="#F7F7F7"/>
<rect x="165" y="720" width="150" height="150" rx="16" fill="white"/>
<path d="M629.431 583.292V590.221C629.431 590.958 629.268 591.625 628.94 592.22C628.618 592.811 628.127 593.28 627.468 593.626C626.814 593.973 625.989 594.146 624.993 594.146C623.577 594.146 622.498 593.785 621.755 593.062C621.013 592.34 620.642 591.383 620.642 590.191V583.292H622.905V589.847C622.905 590.731 623.086 591.351 623.447 591.708C623.809 592.064 624.343 592.242 625.051 592.242C625.549 592.242 625.952 592.157 626.26 591.986C626.572 591.815 626.802 591.551 626.948 591.195C627.095 590.838 627.168 590.384 627.168 589.833V583.292H629.431ZM632.053 594V583.292H634.324V594H632.053ZM649.529 594H646.951L644.146 589.488L643.186 590.177V594H640.916V583.292H643.186V588.192C643.337 587.982 643.486 587.772 643.633 587.562C643.779 587.352 643.928 587.142 644.08 586.932L646.98 583.292H649.5L645.764 588.031L649.529 594ZM652.935 585.812V594H650.701V585.812H652.935ZM651.821 582.604C652.153 582.604 652.439 582.682 652.678 582.838C652.917 582.989 653.037 583.275 653.037 583.695C653.037 584.11 652.917 584.398 652.678 584.559C652.439 584.715 652.153 584.793 651.821 584.793C651.484 584.793 651.196 584.715 650.957 584.559C650.723 584.398 650.605 584.11 650.605 583.695C650.605 583.275 650.723 582.989 650.957 582.838C651.196 582.682 651.484 582.604 651.821 582.604ZM658.735 592.367C658.979 592.367 659.216 592.342 659.446 592.293C659.68 592.245 659.912 592.184 660.142 592.11V593.773C659.902 593.88 659.604 593.968 659.248 594.037C658.896 594.11 658.511 594.146 658.091 594.146C657.603 594.146 657.163 594.068 656.772 593.912C656.387 593.751 656.082 593.475 655.857 593.084C655.637 592.689 655.527 592.14 655.527 591.437V587.489H654.458V586.544L655.688 585.797L656.333 584.068H657.761V585.812H660.054V587.489H657.761V591.437C657.761 591.749 657.849 591.983 658.025 592.14C658.206 592.291 658.442 592.367 658.735 592.367Z" fill="#F7F7F7"/>
<rect x="565" y="420" width="150" height="150" rx="16" fill="white"/>
<path d="M405.906 587.987H410.154V593.539C409.592 593.724 409.009 593.873 408.403 593.985C407.798 594.093 407.112 594.146 406.345 594.146C405.281 594.146 404.377 593.937 403.635 593.517C402.893 593.097 402.329 592.477 401.943 591.656C401.558 590.836 401.365 589.828 401.365 588.631C401.365 587.508 401.58 586.537 402.009 585.716C402.444 584.896 403.076 584.261 403.906 583.812C404.741 583.363 405.759 583.138 406.96 583.138C407.527 583.138 408.086 583.199 408.638 583.321C409.189 583.443 409.69 583.602 410.139 583.797L409.385 585.614C409.058 585.448 408.684 585.309 408.264 585.196C407.844 585.084 407.405 585.028 406.946 585.028C406.287 585.028 405.713 585.179 405.225 585.482C404.741 585.785 404.365 586.209 404.097 586.756C403.833 587.298 403.701 587.938 403.701 588.675C403.701 589.374 403.796 589.994 403.987 590.536C404.177 591.073 404.478 591.495 404.888 591.803C405.298 592.105 405.833 592.257 406.492 592.257C406.814 592.257 407.085 592.242 407.305 592.213C407.529 592.179 407.739 592.145 407.935 592.11V589.876H405.906V587.987ZM420.049 585.812V594H418.335L418.035 592.953H417.917C417.742 593.231 417.522 593.458 417.258 593.634C416.995 593.81 416.704 593.939 416.387 594.022C416.069 594.105 415.74 594.146 415.398 594.146C414.812 594.146 414.302 594.044 413.867 593.839C413.433 593.629 413.093 593.304 412.849 592.865C412.61 592.425 412.49 591.854 412.49 591.151V585.812H414.724V590.594C414.724 591.18 414.829 591.622 415.039 591.92C415.249 592.218 415.583 592.367 416.042 592.367C416.497 592.367 416.853 592.264 417.112 592.059C417.371 591.849 417.551 591.544 417.654 591.144C417.761 590.738 417.815 590.245 417.815 589.664V585.812H420.049ZM424.626 585.812V594H422.393V585.812H424.626ZM423.513 582.604C423.845 582.604 424.131 582.682 424.37 582.838C424.609 582.989 424.729 583.275 424.729 583.695C424.729 584.11 424.609 584.398 424.37 584.559C424.131 584.715 423.845 584.793 423.513 584.793C423.176 584.793 422.888 584.715 422.649 584.559C422.415 584.398 422.297 584.11 422.297 583.695C422.297 583.275 422.415 582.989 422.649 582.838C422.888 582.682 423.176 582.604 423.513 582.604ZM429.57 594.146C428.657 594.146 427.913 593.79 427.336 593.077C426.765 592.359 426.479 591.307 426.479 589.92C426.479 588.519 426.77 587.459 427.351 586.742C427.932 586.019 428.691 585.658 429.629 585.658C430.02 585.658 430.364 585.711 430.662 585.819C430.959 585.926 431.216 586.07 431.431 586.251C431.65 586.432 431.836 586.634 431.987 586.859H432.061C432.031 586.703 431.995 586.473 431.951 586.17C431.912 585.863 431.892 585.548 431.892 585.226V582.604H434.133V594H432.419L431.987 592.938H431.892C431.75 593.163 431.572 593.368 431.357 593.553C431.147 593.734 430.896 593.878 430.603 593.985C430.31 594.093 429.966 594.146 429.57 594.146ZM430.354 592.367C430.964 592.367 431.394 592.186 431.643 591.825C431.897 591.458 432.031 590.909 432.046 590.177V589.935C432.046 589.139 431.924 588.531 431.68 588.111C431.436 587.687 430.981 587.474 430.317 587.474C429.824 587.474 429.438 587.687 429.16 588.111C428.882 588.536 428.743 589.149 428.743 589.95C428.743 590.75 428.882 591.354 429.16 591.759C429.443 592.164 429.841 592.367 430.354 592.367ZM439.846 585.658C440.603 585.658 441.255 585.804 441.802 586.097C442.349 586.385 442.771 586.805 443.069 587.357C443.367 587.909 443.516 588.583 443.516 589.378V590.462H438.235C438.259 591.092 438.447 591.588 438.799 591.949C439.155 592.306 439.648 592.484 440.278 592.484C440.801 592.484 441.279 592.43 441.714 592.323C442.148 592.215 442.595 592.054 443.054 591.839V593.568C442.649 593.768 442.224 593.915 441.78 594.007C441.34 594.1 440.806 594.146 440.176 594.146C439.355 594.146 438.628 593.995 437.993 593.692C437.363 593.39 436.868 592.928 436.506 592.308C436.15 591.688 435.972 590.907 435.972 589.964C435.972 589.007 436.133 588.211 436.455 587.577C436.782 586.937 437.236 586.458 437.817 586.141C438.398 585.819 439.075 585.658 439.846 585.658ZM439.861 587.247C439.426 587.247 439.065 587.386 438.777 587.665C438.494 587.943 438.33 588.38 438.286 588.976H441.421C441.416 588.644 441.355 588.348 441.238 588.089C441.125 587.831 440.955 587.625 440.725 587.474C440.5 587.323 440.212 587.247 439.861 587.247ZM447.566 594H445.332V582.604H447.566V594ZM452.151 585.812V594H449.917V585.812H452.151ZM451.038 582.604C451.37 582.604 451.655 582.682 451.895 582.838C452.134 582.989 452.253 583.275 452.253 583.695C452.253 584.11 452.134 584.398 451.895 584.559C451.655 584.715 451.37 584.793 451.038 584.793C450.701 584.793 450.413 584.715 450.173 584.559C449.939 584.398 449.822 584.11 449.822 583.695C449.822 583.275 449.939 582.989 450.173 582.838C450.413 582.682 450.701 582.604 451.038 582.604ZM459.153 585.658C460.027 585.658 460.73 585.897 461.262 586.375C461.794 586.849 462.061 587.611 462.061 588.661V594H459.827V589.217C459.827 588.631 459.719 588.189 459.504 587.892C459.294 587.594 458.962 587.445 458.508 587.445C457.825 587.445 457.358 587.677 457.109 588.141C456.86 588.604 456.736 589.273 456.736 590.147V594H454.502V585.812H456.208L456.509 586.859H456.633C456.809 586.576 457.026 586.346 457.285 586.17C457.549 585.995 457.839 585.865 458.157 585.782C458.479 585.699 458.811 585.658 459.153 585.658ZM467.737 585.658C468.494 585.658 469.146 585.804 469.692 586.097C470.239 586.385 470.662 586.805 470.959 587.357C471.257 587.909 471.406 588.583 471.406 589.378V590.462H466.125C466.15 591.092 466.338 591.588 466.689 591.949C467.046 592.306 467.539 592.484 468.169 592.484C468.691 592.484 469.17 592.43 469.604 592.323C470.039 592.215 470.486 592.054 470.945 591.839V593.568C470.54 593.768 470.115 593.915 469.67 594.007C469.231 594.1 468.696 594.146 468.066 594.146C467.246 594.146 466.519 593.995 465.884 593.692C465.254 593.39 464.758 592.928 464.397 592.308C464.041 591.688 463.862 590.907 463.862 589.964C463.862 589.007 464.023 588.211 464.346 587.577C464.673 586.937 465.127 586.458 465.708 586.141C466.289 585.819 466.965 585.658 467.737 585.658ZM467.751 587.247C467.317 587.247 466.956 587.386 466.667 587.665C466.384 587.943 466.221 588.38 466.177 588.976H469.312C469.307 588.644 469.246 588.348 469.128 588.089C469.016 587.831 468.845 587.625 468.616 587.474C468.391 587.323 468.103 587.247 467.751 587.247ZM478.936 591.568C478.936 592.125 478.804 592.596 478.54 592.982C478.281 593.363 477.893 593.653 477.375 593.854C476.858 594.049 476.213 594.146 475.442 594.146C474.871 594.146 474.38 594.11 473.97 594.037C473.564 593.963 473.154 593.841 472.739 593.67V591.825C473.184 592.025 473.66 592.191 474.167 592.323C474.68 592.45 475.129 592.513 475.515 592.513C475.95 592.513 476.26 592.45 476.445 592.323C476.636 592.191 476.731 592.02 476.731 591.81C476.731 591.673 476.692 591.551 476.614 591.444C476.541 591.332 476.379 591.207 476.13 591.07C475.881 590.929 475.491 590.746 474.958 590.521C474.446 590.306 474.023 590.089 473.691 589.869C473.364 589.649 473.12 589.391 472.959 589.093C472.803 588.79 472.725 588.407 472.725 587.943C472.725 587.186 473.018 586.617 473.604 586.236C474.194 585.851 474.983 585.658 475.969 585.658C476.477 585.658 476.96 585.709 477.419 585.812C477.883 585.914 478.359 586.078 478.848 586.302L478.174 587.914C477.769 587.738 477.385 587.594 477.024 587.481C476.667 587.369 476.304 587.313 475.933 587.313C475.605 587.313 475.359 587.357 475.193 587.445C475.027 587.533 474.944 587.667 474.944 587.848C474.944 587.979 474.985 588.097 475.068 588.199C475.156 588.302 475.322 588.417 475.566 588.543C475.815 588.666 476.179 588.824 476.658 589.02C477.122 589.21 477.524 589.41 477.866 589.62C478.208 589.825 478.472 590.082 478.657 590.389C478.843 590.692 478.936 591.085 478.936 591.568Z" fill="#F7F7F7"/>
<rect x="365" y="420" width="150" height="150" rx="16" fill="white"/>
<path d="M796.384 288.543C796.384 289.75 796.152 290.758 795.688 291.568C795.229 292.374 794.563 292.982 793.689 293.392C792.815 293.797 791.763 294 790.532 294H787.5V283.292H790.862C791.985 283.292 792.959 283.492 793.784 283.893C794.609 284.288 795.249 284.876 795.703 285.658C796.157 286.434 796.384 287.396 796.384 288.543ZM794.026 288.602C794.026 287.811 793.909 287.162 793.674 286.654C793.445 286.141 793.103 285.763 792.649 285.519C792.2 285.274 791.643 285.152 790.979 285.152H789.771V292.125H790.745C791.853 292.125 792.676 291.83 793.213 291.239C793.755 290.648 794.026 289.769 794.026 288.602ZM801.804 285.658C802.561 285.658 803.213 285.804 803.76 286.097C804.307 286.385 804.729 286.805 805.027 287.357C805.325 287.909 805.474 288.583 805.474 289.378V290.462H800.193C800.217 291.092 800.405 291.588 800.757 291.949C801.113 292.306 801.606 292.484 802.236 292.484C802.759 292.484 803.237 292.43 803.672 292.323C804.106 292.215 804.553 292.054 805.012 291.839V293.568C804.607 293.768 804.182 293.915 803.738 294.007C803.298 294.1 802.764 294.146 802.134 294.146C801.313 294.146 800.586 293.995 799.951 293.692C799.321 293.39 798.826 292.928 798.464 292.308C798.108 291.688 797.93 290.907 797.93 289.964C797.93 289.007 798.091 288.211 798.413 287.577C798.74 286.937 799.194 286.458 799.775 286.141C800.356 285.819 801.033 285.658 801.804 285.658ZM801.819 287.247C801.384 287.247 801.023 287.386 800.735 287.665C800.452 287.943 800.288 288.38 800.244 288.976H803.379C803.374 288.644 803.313 288.348 803.196 288.089C803.083 287.831 802.913 287.625 802.683 287.474C802.458 287.323 802.17 287.247 801.819 287.247ZM813.003 291.568C813.003 292.125 812.871 292.596 812.607 292.982C812.349 293.363 811.96 293.653 811.443 293.854C810.925 294.049 810.281 294.146 809.509 294.146C808.938 294.146 808.447 294.11 808.037 294.037C807.632 293.963 807.222 293.841 806.807 293.67V291.825C807.251 292.025 807.727 292.191 808.235 292.323C808.748 292.45 809.197 292.513 809.583 292.513C810.017 292.513 810.327 292.45 810.513 292.323C810.703 292.191 810.798 292.02 810.798 291.81C810.798 291.673 810.759 291.551 810.681 291.444C810.608 291.332 810.447 291.207 810.198 291.07C809.949 290.929 809.558 290.746 809.026 290.521C808.513 290.306 808.091 290.089 807.759 289.869C807.432 289.649 807.188 289.391 807.026 289.093C806.87 288.79 806.792 288.407 806.792 287.943C806.792 287.186 807.085 286.617 807.671 286.236C808.262 285.851 809.05 285.658 810.037 285.658C810.544 285.658 811.028 285.709 811.487 285.812C811.951 285.914 812.427 286.078 812.915 286.302L812.241 287.914C811.836 287.738 811.453 287.594 811.091 287.481C810.735 287.369 810.371 287.313 810 287.313C809.673 287.313 809.426 287.357 809.26 287.445C809.094 287.533 809.011 287.667 809.011 287.848C809.011 287.979 809.053 288.097 809.136 288.199C809.224 288.302 809.39 288.417 809.634 288.543C809.883 288.666 810.247 288.824 810.725 289.02C811.189 289.21 811.592 289.41 811.934 289.62C812.275 289.825 812.539 290.082 812.725 290.389C812.91 290.692 813.003 291.085 813.003 291.568ZM816.98 285.812V294H814.746V285.812H816.98ZM815.867 282.604C816.199 282.604 816.484 282.682 816.724 282.838C816.963 282.989 817.083 283.275 817.083 283.695C817.083 284.11 816.963 284.398 816.724 284.559C816.484 284.715 816.199 284.793 815.867 284.793C815.53 284.793 815.242 284.715 815.002 284.559C814.768 284.398 814.651 284.11 814.651 283.695C814.651 283.275 814.768 282.989 815.002 282.838C815.242 282.682 815.53 282.604 815.867 282.604ZM821.726 297.604C820.583 297.604 819.709 297.403 819.104 297.003C818.503 296.607 818.203 296.051 818.203 295.333C818.203 294.84 818.357 294.427 818.665 294.095C818.972 293.763 819.424 293.526 820.02 293.385C819.79 293.287 819.59 293.128 819.419 292.909C819.248 292.684 819.163 292.447 819.163 292.198C819.163 291.886 819.253 291.627 819.434 291.422C819.614 291.212 819.875 291.007 820.217 290.807C819.788 290.621 819.446 290.323 819.192 289.913C818.943 289.503 818.818 289.02 818.818 288.463C818.818 287.867 818.948 287.362 819.207 286.947C819.47 286.527 819.851 286.207 820.349 285.987C820.852 285.768 821.462 285.658 822.18 285.658C822.332 285.658 822.507 285.667 822.708 285.687C822.908 285.707 823.091 285.729 823.257 285.753C823.428 285.777 823.542 285.797 823.601 285.812H826.458V286.947L825.176 287.276C825.293 287.457 825.381 287.65 825.439 287.855C825.498 288.06 825.527 288.277 825.527 288.507C825.527 289.386 825.22 290.072 824.604 290.565C823.994 291.053 823.145 291.297 822.056 291.297C821.797 291.283 821.553 291.263 821.323 291.239C821.211 291.327 821.125 291.419 821.067 291.517C821.008 291.615 820.979 291.717 820.979 291.825C820.979 291.932 821.023 292.022 821.111 292.096C821.204 292.164 821.34 292.218 821.521 292.257C821.707 292.291 821.936 292.308 822.209 292.308H823.601C824.5 292.308 825.183 292.501 825.652 292.887C826.125 293.272 826.362 293.839 826.362 294.586C826.362 295.543 825.962 296.285 825.161 296.812C824.365 297.34 823.22 297.604 821.726 297.604ZM821.821 296.146C822.354 296.146 822.81 296.095 823.191 295.992C823.577 295.895 823.872 295.753 824.077 295.567C824.282 295.387 824.385 295.169 824.385 294.916C824.385 294.71 824.324 294.547 824.202 294.425C824.084 294.308 823.904 294.225 823.66 294.176C823.42 294.127 823.113 294.103 822.737 294.103H821.58C821.306 294.103 821.06 294.146 820.84 294.234C820.625 294.322 820.454 294.444 820.327 294.601C820.2 294.762 820.137 294.947 820.137 295.157C820.137 295.465 820.283 295.707 820.576 295.882C820.874 296.058 821.289 296.146 821.821 296.146ZM822.18 289.935C822.6 289.935 822.908 289.806 823.103 289.547C823.298 289.288 823.396 288.937 823.396 288.492C823.396 287.999 823.293 287.63 823.088 287.386C822.888 287.137 822.585 287.013 822.18 287.013C821.77 287.013 821.462 287.137 821.257 287.386C821.052 287.63 820.95 287.999 820.95 288.492C820.95 288.937 821.05 289.288 821.25 289.547C821.455 289.806 821.765 289.935 822.18 289.935ZM832.463 285.658C833.337 285.658 834.041 285.897 834.573 286.375C835.105 286.849 835.371 287.611 835.371 288.661V294H833.137V289.217C833.137 288.631 833.03 288.189 832.815 287.892C832.605 287.594 832.273 287.445 831.819 287.445C831.135 287.445 830.669 287.677 830.42 288.141C830.171 288.604 830.046 289.273 830.046 290.147V294H827.812V285.812H829.519L829.819 286.859H829.944C830.12 286.576 830.337 286.346 830.596 286.17C830.859 285.995 831.15 285.865 831.467 285.782C831.79 285.699 832.122 285.658 832.463 285.658ZM845.874 294H843.604V285.182H840.696V283.292H848.782V285.182H845.874V294ZM857.695 289.891C857.695 290.575 857.603 291.18 857.417 291.708C857.236 292.235 856.97 292.682 856.619 293.048C856.272 293.409 855.852 293.683 855.359 293.868C854.871 294.054 854.319 294.146 853.704 294.146C853.127 294.146 852.598 294.054 852.114 293.868C851.636 293.683 851.218 293.409 850.862 293.048C850.51 292.682 850.237 292.235 850.042 291.708C849.851 291.18 849.756 290.575 849.756 289.891C849.756 288.983 849.917 288.214 850.239 287.584C850.562 286.954 851.021 286.476 851.616 286.148C852.212 285.821 852.922 285.658 853.748 285.658C854.514 285.658 855.193 285.821 855.784 286.148C856.379 286.476 856.846 286.954 857.183 287.584C857.524 288.214 857.695 288.983 857.695 289.891ZM852.034 289.891C852.034 290.428 852.092 290.88 852.209 291.246C852.327 291.612 852.51 291.888 852.759 292.074C853.008 292.259 853.333 292.352 853.733 292.352C854.128 292.352 854.448 292.259 854.692 292.074C854.941 291.888 855.122 291.612 855.234 291.246C855.352 290.88 855.41 290.428 855.41 289.891C855.41 289.349 855.352 288.9 855.234 288.543C855.122 288.182 854.941 287.911 854.692 287.73C854.443 287.55 854.119 287.459 853.718 287.459C853.127 287.459 852.698 287.662 852.429 288.067C852.166 288.473 852.034 289.081 852.034 289.891ZM861.775 282.604V287.701C861.775 288.009 861.763 288.316 861.738 288.624C861.714 288.932 861.687 289.239 861.658 289.547H861.687C861.838 289.332 861.992 289.12 862.148 288.91C862.31 288.7 862.48 288.497 862.661 288.302L864.954 285.812H867.473L864.221 289.364L867.671 294H865.093L862.734 290.682L861.775 291.451V294H859.541V282.604H861.775ZM872.219 285.658C872.976 285.658 873.628 285.804 874.175 286.097C874.722 286.385 875.144 286.805 875.442 287.357C875.74 287.909 875.889 288.583 875.889 289.378V290.462H870.608C870.632 291.092 870.82 291.588 871.172 291.949C871.528 292.306 872.021 292.484 872.651 292.484C873.174 292.484 873.652 292.43 874.087 292.323C874.521 292.215 874.968 292.054 875.427 291.839V293.568C875.022 293.768 874.597 293.915 874.153 294.007C873.713 294.1 873.179 294.146 872.549 294.146C871.729 294.146 871.001 293.995 870.366 293.692C869.736 293.39 869.241 292.928 868.879 292.308C868.523 291.688 868.345 290.907 868.345 289.964C868.345 289.007 868.506 288.211 868.828 287.577C869.155 286.937 869.609 286.458 870.19 286.141C870.771 285.819 871.448 285.658 872.219 285.658ZM872.234 287.247C871.799 287.247 871.438 287.386 871.15 287.665C870.867 287.943 870.703 288.38 870.659 288.976H873.794C873.789 288.644 873.728 288.348 873.611 288.089C873.499 287.831 873.328 287.625 873.098 287.474C872.874 287.323 872.585 287.247 872.234 287.247ZM882.356 285.658C883.23 285.658 883.933 285.897 884.465 286.375C884.998 286.849 885.264 287.611 885.264 288.661V294H883.03V289.217C883.03 288.631 882.922 288.189 882.708 287.892C882.498 287.594 882.166 287.445 881.711 287.445C881.028 287.445 880.562 287.677 880.312 288.141C880.063 288.604 879.939 289.273 879.939 290.147V294H877.705V285.812H879.412L879.712 286.859H879.836C880.012 286.576 880.229 286.346 880.488 286.17C880.752 285.995 881.042 285.865 881.36 285.782C881.682 285.699 882.014 285.658 882.356 285.658ZM893.276 291.568C893.276 292.125 893.145 292.596 892.881 292.982C892.622 293.363 892.234 293.653 891.716 293.854C891.199 294.049 890.554 294.146 889.783 294.146C889.211 294.146 888.721 294.11 888.311 294.037C887.905 293.963 887.495 293.841 887.08 293.67V291.825C887.524 292.025 888 292.191 888.508 292.323C889.021 292.45 889.47 292.513 889.856 292.513C890.291 292.513 890.601 292.45 890.786 292.323C890.977 292.191 891.072 292.02 891.072 291.81C891.072 291.673 891.033 291.551 890.955 291.444C890.881 291.332 890.72 291.207 890.471 291.07C890.222 290.929 889.832 290.746 889.299 290.521C888.787 290.306 888.364 290.089 888.032 289.869C887.705 289.649 887.461 289.391 887.3 289.093C887.144 288.79 887.065 288.407 887.065 287.943C887.065 287.186 887.358 286.617 887.944 286.236C888.535 285.851 889.324 285.658 890.31 285.658C890.818 285.658 891.301 285.709 891.76 285.812C892.224 285.914 892.7 286.078 893.188 286.302L892.515 287.914C892.109 287.738 891.726 287.594 891.365 287.481C891.008 287.369 890.645 287.313 890.273 287.313C889.946 287.313 889.7 287.357 889.534 287.445C889.368 287.533 889.285 287.667 889.285 287.848C889.285 287.979 889.326 288.097 889.409 288.199C889.497 288.302 889.663 288.417 889.907 288.543C890.156 288.666 890.52 288.824 890.999 289.02C891.462 289.21 891.865 289.41 892.207 289.62C892.549 289.825 892.812 290.082 892.998 290.389C893.184 290.692 893.276 291.085 893.276 291.568Z" fill="#F7F7F7"/>
<rect x="765" y="120" width="150" height="150" rx="16" fill="white"/>
<path d="M238.586 700.914C239.367 701.695 240.633 701.695 241.414 700.914L254.142 688.186C254.923 687.405 254.923 686.139 254.142 685.358C253.361 684.577 252.095 684.577 251.314 685.358L240 696.672L228.686 685.358C227.905 684.577 226.639 684.577 225.858 685.358C225.077 686.139 225.077 687.405 225.858 688.186L238.586 700.914ZM240 205L240 203L238 205L240 205ZM745 203L240 203L240 207L745 207L745 203ZM238 205L238 699.5L242 699.5L242 205L238 205Z" fill="white"/>
<path d="M331.465 697.51C331.273 698.598 331.999 699.635 333.087 699.827L350.814 702.952C351.901 703.144 352.939 702.418 353.131 701.33C353.322 700.242 352.596 699.205 351.508 699.013L335.751 696.235L338.53 680.478C338.721 679.39 337.995 678.353 336.907 678.161C335.82 677.969 334.782 678.695 334.59 679.783L331.465 697.51ZM440.418 620.505L332.287 696.219L334.582 699.495L442.713 623.781L440.418 620.505Z" fill="#F7F7F7"/>
<path d="M333.586 793.586C332.805 794.367 332.805 795.633 333.586 796.414L346.314 809.142C347.095 809.923 348.361 809.923 349.142 809.142C349.923 808.361 349.923 807.095 349.142 806.314L337.828 795L349.142 783.686C349.923 782.905 349.923 781.639 349.142 780.858C348.361 780.077 347.095 780.077 346.314 780.858L333.586 793.586ZM745 793H335V797H745V793Z" fill="#F7F7F7"/>
<path d="M1196.41 796.414C1197.2 795.633 1197.2 794.367 1196.41 793.586L1183.69 780.858C1182.91 780.077 1181.64 780.077 1180.86 780.858C1180.08 781.639 1180.08 782.905 1180.86 783.686L1192.17 795L1180.86 806.314C1180.08 807.095 1180.08 808.361 1180.86 809.142C1181.64 809.923 1182.91 809.923 1183.69 809.142L1196.41 796.414ZM935 797H1195V793H935V797Z" fill="black"/>
<path d="M1196.41 621.414C1197.2 620.633 1197.2 619.367 1196.41 618.586L1183.69 605.858C1182.91 605.077 1181.64 605.077 1180.86 605.858C1180.08 606.639 1180.08 607.905 1180.86 608.686L1192.17 620L1180.86 631.314C1180.08 632.095 1180.08 633.361 1180.86 634.142C1181.64 634.923 1182.91 634.923 1183.69 634.142L1196.41 621.414ZM1059 622H1195V618H1059V622Z" fill="black"/>
<path d="M1196.41 421.414C1197.2 420.633 1197.2 419.367 1196.41 418.586L1183.69 405.858C1182.91 405.077 1181.64 405.077 1180.86 405.858C1180.08 406.639 1180.08 407.905 1180.86 408.686L1192.17 420L1180.86 431.314C1180.08 432.095 1180.08 433.361 1180.86 434.142C1181.64 434.923 1182.91 434.923 1183.69 434.142L1196.41 421.414ZM1059 422H1195V418H1059V422Z" fill="black"/>
<path d="M1196.41 221.414C1197.2 220.633 1197.2 219.367 1196.41 218.586L1183.69 205.858C1182.91 205.077 1181.64 205.077 1180.86 205.858C1180.08 206.639 1180.08 207.905 1180.86 208.686L1192.17 220L1180.86 231.314C1180.08 232.095 1180.08 233.361 1180.86 234.142C1181.64 234.923 1182.91 234.923 1183.69 234.142L1196.41 221.414ZM1060 220V218H1058V220H1060ZM1127 222H1195V218H1127V222ZM1062 794.5V220H1058V794.5H1062ZM1060 222H1127V218H1060V222Z" fill="black"/>
<path d="M829.586 701.414C830.367 702.195 831.633 702.195 832.414 701.414L845.142 688.686C845.923 687.905 845.923 686.639 845.142 685.858C844.361 685.077 843.095 685.077 842.314 685.858L831 697.172L819.686 685.858C818.905 685.077 817.639 685.077 816.858 685.858C816.077 686.639 816.077 687.905 816.858 688.686L829.586 701.414ZM829 320L829 700L833 700L833 320L829 320Z" fill="#F7F7F7"/>
<path d="M773.32 885.028C772.886 885.028 772.5 885.113 772.163 885.284C771.831 885.45 771.55 885.692 771.321 886.009C771.096 886.327 770.925 886.71 770.808 887.159C770.691 887.608 770.632 888.114 770.632 888.675C770.632 889.432 770.725 890.079 770.911 890.616C771.101 891.148 771.394 891.556 771.79 891.839C772.185 892.118 772.695 892.257 773.32 892.257C773.755 892.257 774.189 892.208 774.624 892.11C775.063 892.013 775.54 891.874 776.052 891.693V893.597C775.579 893.792 775.112 893.932 774.653 894.015C774.194 894.103 773.679 894.146 773.108 894.146C772.004 894.146 771.096 893.919 770.383 893.465C769.675 893.006 769.15 892.367 768.809 891.546C768.467 890.721 768.296 889.759 768.296 888.661C768.296 887.85 768.406 887.108 768.625 886.434C768.845 885.76 769.167 885.177 769.592 884.684C770.017 884.19 770.542 883.81 771.167 883.541C771.792 883.272 772.51 883.138 773.32 883.138C773.853 883.138 774.385 883.207 774.917 883.343C775.454 883.475 775.967 883.658 776.455 883.893L775.723 885.738C775.322 885.548 774.919 885.382 774.514 885.24C774.109 885.099 773.711 885.028 773.32 885.028ZM785.603 889.891C785.603 890.575 785.51 891.18 785.325 891.708C785.144 892.235 784.878 892.682 784.526 893.048C784.18 893.409 783.76 893.683 783.267 893.868C782.778 894.054 782.227 894.146 781.611 894.146C781.035 894.146 780.505 894.054 780.022 893.868C779.543 893.683 779.126 893.409 778.77 893.048C778.418 892.682 778.145 892.235 777.949 891.708C777.759 891.18 777.664 890.575 777.664 889.891C777.664 888.983 777.825 888.214 778.147 887.584C778.469 886.954 778.928 886.476 779.524 886.148C780.12 885.821 780.83 885.658 781.655 885.658C782.422 885.658 783.101 885.821 783.691 886.148C784.287 886.476 784.753 886.954 785.09 887.584C785.432 888.214 785.603 888.983 785.603 889.891ZM779.941 889.891C779.941 890.428 780 890.88 780.117 891.246C780.234 891.612 780.417 891.888 780.667 892.074C780.916 892.259 781.24 892.352 781.641 892.352C782.036 892.352 782.356 892.259 782.6 892.074C782.849 891.888 783.03 891.612 783.142 891.246C783.259 890.88 783.318 890.428 783.318 889.891C783.318 889.349 783.259 888.9 783.142 888.543C783.03 888.182 782.849 887.911 782.6 887.73C782.351 887.55 782.026 887.459 781.626 887.459C781.035 887.459 780.605 887.662 780.337 888.067C780.073 888.473 779.941 889.081 779.941 889.891ZM797.065 885.658C797.993 885.658 798.694 885.897 799.167 886.375C799.646 886.849 799.885 887.611 799.885 888.661V894H797.644V889.217C797.644 888.631 797.544 888.189 797.344 887.892C797.144 887.594 796.833 887.445 796.414 887.445C795.823 887.445 795.403 887.657 795.154 888.082C794.905 888.502 794.78 889.105 794.78 889.891V894H792.546V889.217C792.546 888.827 792.502 888.5 792.415 888.236C792.327 887.972 792.192 887.774 792.012 887.643C791.831 887.511 791.599 887.445 791.316 887.445C790.901 887.445 790.574 887.55 790.334 887.76C790.1 887.965 789.932 888.27 789.829 888.675C789.731 889.076 789.683 889.566 789.683 890.147V894H787.449V885.812H789.155L789.456 886.859H789.58C789.746 886.576 789.954 886.346 790.203 886.17C790.457 885.995 790.735 885.865 791.038 885.782C791.34 885.699 791.648 885.658 791.96 885.658C792.561 885.658 793.069 885.755 793.484 885.951C793.904 886.146 794.226 886.449 794.451 886.859H794.648C794.893 886.439 795.237 886.134 795.681 885.943C796.13 885.753 796.592 885.658 797.065 885.658ZM806.741 885.658C807.664 885.658 808.408 886.017 808.975 886.734C809.546 887.452 809.832 888.504 809.832 889.891C809.832 890.819 809.697 891.6 809.429 892.235C809.16 892.865 808.789 893.341 808.315 893.663C807.842 893.985 807.297 894.146 806.682 894.146C806.287 894.146 805.947 894.098 805.664 894C805.381 893.897 805.139 893.768 804.939 893.612C804.739 893.451 804.565 893.28 804.419 893.099H804.302C804.341 893.294 804.37 893.495 804.39 893.7C804.409 893.905 804.419 894.105 804.419 894.3V897.604H802.185V885.812H804.001L804.316 886.874H804.419C804.565 886.654 804.744 886.451 804.954 886.266C805.164 886.08 805.415 885.934 805.708 885.826C806.006 885.714 806.35 885.658 806.741 885.658ZM806.023 887.445C805.632 887.445 805.322 887.525 805.093 887.687C804.863 887.848 804.695 888.089 804.587 888.412C804.485 888.734 804.429 889.142 804.419 889.635V889.876C804.419 890.404 804.468 890.851 804.565 891.217C804.668 891.583 804.836 891.861 805.071 892.052C805.31 892.242 805.637 892.337 806.052 892.337C806.394 892.337 806.675 892.242 806.895 892.052C807.114 891.861 807.278 891.583 807.385 891.217C807.498 890.846 807.554 890.394 807.554 889.862C807.554 889.061 807.429 888.458 807.18 888.053C806.931 887.647 806.545 887.445 806.023 887.445ZM819.119 889.891C819.119 890.575 819.026 891.18 818.84 891.708C818.66 892.235 818.394 892.682 818.042 893.048C817.695 893.409 817.275 893.683 816.782 893.868C816.294 894.054 815.742 894.146 815.127 894.146C814.551 894.146 814.021 894.054 813.538 893.868C813.059 893.683 812.642 893.409 812.285 893.048C811.934 892.682 811.66 892.235 811.465 891.708C811.274 891.18 811.179 890.575 811.179 889.891C811.179 888.983 811.34 888.214 811.663 887.584C811.985 886.954 812.444 886.476 813.04 886.148C813.635 885.821 814.346 885.658 815.171 885.658C815.938 885.658 816.616 885.821 817.207 886.148C817.803 886.476 818.269 886.954 818.606 887.584C818.948 888.214 819.119 888.983 819.119 889.891ZM813.457 889.891C813.457 890.428 813.516 890.88 813.633 891.246C813.75 891.612 813.933 891.888 814.182 892.074C814.431 892.259 814.756 892.352 815.156 892.352C815.552 892.352 815.872 892.259 816.116 892.074C816.365 891.888 816.545 891.612 816.658 891.246C816.775 890.88 816.833 890.428 816.833 889.891C816.833 889.349 816.775 888.9 816.658 888.543C816.545 888.182 816.365 887.911 816.116 887.73C815.867 887.55 815.542 887.459 815.142 887.459C814.551 887.459 814.121 887.662 813.853 888.067C813.589 888.473 813.457 889.081 813.457 889.891ZM825.615 885.658C826.489 885.658 827.192 885.897 827.725 886.375C828.257 886.849 828.523 887.611 828.523 888.661V894H826.289V889.217C826.289 888.631 826.182 888.189 825.967 887.892C825.757 887.594 825.425 887.445 824.971 887.445C824.287 887.445 823.821 887.677 823.572 888.141C823.323 888.604 823.198 889.273 823.198 890.147V894H820.964V885.812H822.671L822.971 886.859H823.096C823.271 886.576 823.489 886.346 823.748 886.17C824.011 885.995 824.302 885.865 824.619 885.782C824.941 885.699 825.273 885.658 825.615 885.658ZM834.199 885.658C834.956 885.658 835.608 885.804 836.155 886.097C836.702 886.385 837.124 886.805 837.422 887.357C837.72 887.909 837.869 888.583 837.869 889.378V890.462H832.588C832.612 891.092 832.8 891.588 833.152 891.949C833.508 892.306 834.001 892.484 834.631 892.484C835.154 892.484 835.632 892.43 836.067 892.323C836.501 892.215 836.948 892.054 837.407 891.839V893.568C837.002 893.768 836.577 893.915 836.133 894.007C835.693 894.1 835.159 894.146 834.529 894.146C833.708 894.146 832.981 893.995 832.346 893.692C831.716 893.39 831.221 892.928 830.859 892.308C830.503 891.688 830.325 890.907 830.325 889.964C830.325 889.007 830.486 888.211 830.808 887.577C831.135 886.937 831.589 886.458 832.17 886.141C832.751 885.819 833.428 885.658 834.199 885.658ZM834.214 887.247C833.779 887.247 833.418 887.386 833.13 887.665C832.847 887.943 832.683 888.38 832.639 888.976H835.774C835.769 888.644 835.708 888.348 835.591 888.089C835.479 887.831 835.308 887.625 835.078 887.474C834.854 887.323 834.565 887.247 834.214 887.247ZM844.336 885.658C845.21 885.658 845.913 885.897 846.445 886.375C846.978 886.849 847.244 887.611 847.244 888.661V894H845.01V889.217C845.01 888.631 844.902 888.189 844.688 887.892C844.478 887.594 844.146 887.445 843.691 887.445C843.008 887.445 842.542 887.677 842.292 888.141C842.043 888.604 841.919 889.273 841.919 890.147V894H839.685V885.812H841.392L841.692 886.859H841.816C841.992 886.576 842.209 886.346 842.468 886.17C842.732 885.995 843.022 885.865 843.34 885.782C843.662 885.699 843.994 885.658 844.336 885.658ZM852.993 892.367C853.237 892.367 853.474 892.342 853.704 892.293C853.938 892.245 854.17 892.184 854.399 892.11V893.773C854.16 893.88 853.862 893.968 853.506 894.037C853.154 894.11 852.769 894.146 852.349 894.146C851.86 894.146 851.421 894.068 851.03 893.912C850.645 893.751 850.339 893.475 850.115 893.084C849.895 892.689 849.785 892.14 849.785 891.437V887.489H848.716V886.544L849.946 885.797L850.591 884.068H852.019V885.812H854.312V887.489H852.019V891.437C852.019 891.749 852.107 891.983 852.283 892.14C852.463 892.291 852.7 892.367 852.993 892.367ZM860.134 894V883.292H862.405V892.125H866.748V894H860.134ZM870.674 885.812V894H868.44V885.812H870.674ZM869.561 882.604C869.893 882.604 870.178 882.682 870.417 882.838C870.657 882.989 870.776 883.275 870.776 883.695C870.776 884.11 870.657 884.398 870.417 884.559C870.178 884.715 869.893 884.793 869.561 884.793C869.224 884.793 868.936 884.715 868.696 884.559C868.462 884.398 868.345 884.11 868.345 883.695C868.345 883.275 868.462 882.989 868.696 882.838C868.936 882.682 869.224 882.604 869.561 882.604ZM875.259 882.604V885.255C875.259 885.562 875.249 885.868 875.229 886.17C875.215 886.473 875.195 886.708 875.171 886.874H875.259C875.474 886.537 875.767 886.251 876.138 886.017C876.509 885.777 876.99 885.658 877.581 885.658C878.499 885.658 879.243 886.017 879.814 886.734C880.386 887.452 880.671 888.504 880.671 889.891C880.671 890.824 880.54 891.607 880.276 892.242C880.012 892.872 879.644 893.348 879.17 893.67C878.696 893.988 878.147 894.146 877.522 894.146C876.921 894.146 876.448 894.039 876.101 893.824C875.754 893.609 875.474 893.368 875.259 893.099H875.105L874.731 894H873.025V882.604H875.259ZM876.863 887.445C876.472 887.445 876.162 887.525 875.933 887.687C875.703 887.848 875.535 888.089 875.427 888.412C875.325 888.734 875.269 889.142 875.259 889.635V889.876C875.259 890.672 875.376 891.283 875.61 891.708C875.845 892.127 876.272 892.337 876.892 892.337C877.351 892.337 877.715 892.125 877.983 891.7C878.257 891.275 878.394 890.663 878.394 889.862C878.394 889.061 878.257 888.458 877.983 888.053C877.71 887.647 877.336 887.445 876.863 887.445ZM887.087 885.658C887.2 885.658 887.329 885.665 887.476 885.68C887.627 885.689 887.749 885.704 887.842 885.724L887.673 887.818C887.6 887.794 887.495 887.777 887.358 887.767C887.227 887.752 887.112 887.745 887.014 887.745C886.726 887.745 886.445 887.782 886.172 887.855C885.903 887.928 885.662 888.048 885.447 888.214C885.232 888.375 885.061 888.59 884.934 888.858C884.812 889.122 884.751 889.447 884.751 889.833V894H882.517V885.812H884.209L884.539 887.188H884.648C884.81 886.91 885.01 886.656 885.249 886.427C885.493 886.192 885.769 886.007 886.077 885.87C886.389 885.729 886.726 885.658 887.087 885.658ZM892.683 885.643C893.782 885.643 894.624 885.882 895.21 886.361C895.796 886.839 896.089 887.567 896.089 888.543V894H894.529L894.097 892.887H894.038C893.804 893.18 893.564 893.419 893.32 893.604C893.076 893.79 892.795 893.927 892.478 894.015C892.161 894.103 891.775 894.146 891.321 894.146C890.837 894.146 890.403 894.054 890.017 893.868C889.636 893.683 889.336 893.399 889.116 893.019C888.896 892.633 888.787 892.145 888.787 891.554C888.787 890.685 889.092 890.045 889.702 889.635C890.312 889.22 891.228 888.99 892.449 888.946L893.87 888.902V888.543C893.87 888.114 893.757 887.799 893.533 887.599C893.308 887.398 892.996 887.298 892.595 887.298C892.2 887.298 891.812 887.354 891.431 887.467C891.05 887.579 890.669 887.721 890.288 887.892L889.548 886.383C889.983 886.153 890.469 885.973 891.006 885.841C891.548 885.709 892.107 885.643 892.683 885.643ZM893.87 890.206L893.005 890.235C892.283 890.255 891.78 890.384 891.497 890.624C891.218 890.863 891.079 891.178 891.079 891.568C891.079 891.91 891.179 892.154 891.379 892.301C891.58 892.442 891.841 892.513 892.163 892.513C892.642 892.513 893.044 892.372 893.372 892.088C893.704 891.805 893.87 891.402 893.87 890.88V890.206ZM902.966 885.658C903.079 885.658 903.208 885.665 903.354 885.68C903.506 885.689 903.628 885.704 903.721 885.724L903.552 887.818C903.479 887.794 903.374 887.777 903.237 887.767C903.105 887.752 902.991 887.745 902.893 887.745C902.605 887.745 902.324 887.782 902.051 887.855C901.782 887.928 901.541 888.048 901.326 888.214C901.111 888.375 900.94 888.59 900.813 888.858C900.691 889.122 900.63 889.447 900.63 889.833V894H898.396V885.812H900.088L900.417 887.188H900.527C900.688 886.91 900.889 886.656 901.128 886.427C901.372 886.192 901.648 886.007 901.956 885.87C902.268 885.729 902.605 885.658 902.966 885.658ZM904.036 885.812H906.482L908.027 890.418C908.076 890.565 908.118 890.714 908.152 890.865C908.186 891.017 908.215 891.173 908.24 891.334C908.264 891.495 908.284 891.664 908.298 891.839H908.342C908.372 891.576 908.411 891.329 908.459 891.1C908.513 890.87 908.579 890.643 908.657 890.418L910.173 885.812H912.568L909.104 895.047C908.894 895.614 908.621 896.085 908.284 896.461C907.947 896.842 907.559 897.127 907.119 897.318C906.685 897.508 906.206 897.604 905.684 897.604C905.43 897.604 905.21 897.589 905.024 897.56C904.839 897.535 904.68 897.508 904.548 897.479V895.707C904.651 895.731 904.78 895.753 904.937 895.772C905.093 895.792 905.256 895.802 905.427 895.802C905.74 895.802 906.008 895.736 906.233 895.604C906.458 895.472 906.646 895.294 906.797 895.069C906.948 894.85 907.068 894.608 907.156 894.344L907.288 893.941L904.036 885.812Z" fill="#F7F7F7"/>
<rect x="765" y="720" width="150" height="150" rx="16" fill="white"/>
<path fill-rule="evenodd" clip-rule="evenodd" d="M784.62 737.845C783.64 737.845 782.845 738.64 782.845 739.62V746.553C782.845 747.534 783.64 748.328 784.62 748.328C785.6 748.328 786.395 747.534 786.395 746.553V741.395H791.553C792.534 741.395 793.328 740.6 793.328 739.62C793.328 738.64 792.534 737.845 791.553 737.845H784.62ZM805.421 737.845C804.441 737.845 803.646 738.64 803.646 739.62C803.646 740.6 804.441 741.395 805.421 741.395H819.288C820.268 741.395 821.063 740.6 821.063 739.62C821.063 738.64 820.268 737.845 819.288 737.845H805.421ZM833.155 737.845C832.175 737.845 831.38 738.64 831.38 739.62C831.38 740.6 832.175 741.395 833.155 741.395H838.314V746.553C838.314 747.534 839.108 748.328 840.089 748.328C841.069 748.328 841.864 747.534 841.864 746.553V741.395H847.022C848.003 741.395 848.797 740.6 848.797 739.62C848.797 738.64 848.003 737.845 847.022 737.845H840.089H833.155ZM786.395 760.421C786.395 759.441 785.6 758.646 784.62 758.646C783.64 758.646 782.845 759.441 782.845 760.421V774.288C782.845 775.268 783.64 776.063 784.62 776.063C785.6 776.063 786.395 775.268 786.395 774.288V760.421ZM841.864 760.421C841.864 759.441 841.069 758.646 840.089 758.646C839.108 758.646 838.314 759.441 838.314 760.421V774.288C838.314 775.268 839.108 776.063 840.089 776.063C841.069 776.063 841.864 775.268 841.864 774.288V760.421ZM786.395 788.155C786.395 787.175 785.6 786.38 784.62 786.38C783.64 786.38 782.845 787.175 782.845 788.155V795.089V802.022C782.845 803.003 783.64 803.797 784.62 803.797C785.6 803.797 786.395 803.003 786.395 802.022V796.864H791.553C792.534 796.864 793.328 796.069 793.328 795.089C793.328 794.108 792.534 793.314 791.553 793.314H786.395V788.155ZM841.864 788.155C841.864 787.175 841.069 786.38 840.089 786.38C839.108 786.38 838.314 787.175 838.314 788.155V793.314H833.155C832.175 793.314 831.38 794.108 831.38 795.089C831.38 796.069 832.175 796.864 833.155 796.864H838.314V802.022C838.314 803.003 839.108 803.797 840.089 803.797C841.069 803.797 841.864 803.003 841.864 802.022V796.864H847.022C848.003 796.864 848.797 796.069 848.797 795.089C848.797 794.108 848.003 793.314 847.022 793.314H841.864V788.155ZM805.421 793.314C804.441 793.314 803.646 794.108 803.646 795.089C803.646 796.069 804.441 796.864 805.421 796.864H819.288C820.268 796.864 821.063 796.069 821.063 795.089C821.063 794.108 820.268 793.314 819.288 793.314H805.421ZM860.89 737.845C859.909 737.845 859.115 738.64 859.115 739.62C859.115 740.6 859.909 741.395 860.89 741.395H874.757C875.737 741.395 876.532 740.6 876.532 739.62C876.532 738.64 875.737 737.845 874.757 737.845H860.89ZM888.624 737.845C887.644 737.845 886.849 738.64 886.849 739.62C886.849 740.6 887.644 741.395 888.624 741.395H893.782V746.553C893.782 747.534 894.577 748.328 895.557 748.328C896.538 748.328 897.332 747.534 897.332 746.553V739.62C897.332 738.64 896.538 737.845 895.557 737.845H888.624ZM897.332 760.421C897.332 759.441 896.538 758.646 895.557 758.646C894.577 758.646 893.782 759.441 893.782 760.421V774.288C893.782 775.268 894.577 776.063 895.557 776.063C896.538 776.063 897.332 775.268 897.332 774.288V760.421ZM897.332 788.155C897.332 787.175 896.538 786.38 895.557 786.38C894.577 786.38 893.782 787.175 893.782 788.155V793.314H888.624C887.644 793.314 886.849 794.108 886.849 795.089C886.849 796.069 887.644 796.864 888.624 796.864H893.782V802.022C893.782 803.003 894.577 803.797 895.557 803.797C896.538 803.797 897.332 803.003 897.332 802.022V795.089V788.155ZM860.89 793.314C859.909 793.314 859.115 794.108 859.115 795.089C859.115 796.069 859.909 796.864 860.89 796.864H874.757C875.737 796.864 876.532 796.069 876.532 795.089C876.532 794.108 875.737 793.314 874.757 793.314H860.89ZM840.089 814.115C841.069 814.115 841.864 814.909 841.864 815.89V829.757C841.864 830.737 841.069 831.532 840.089 831.532C839.108 831.532 838.314 830.737 838.314 829.757V815.89C838.314 814.909 839.108 814.115 840.089 814.115ZM895.557 814.115C896.538 814.115 897.332 814.909 897.332 815.89V829.757C897.332 830.737 896.538 831.532 895.557 831.532C894.577 831.532 893.782 830.737 893.782 829.757V815.89C893.782 814.909 894.577 814.115 895.557 814.115ZM840.089 841.849C841.069 841.849 841.864 842.644 841.864 843.624V848.782H847.022C848.003 848.782 848.797 849.577 848.797 850.557C848.797 851.538 848.003 852.332 847.022 852.332H840.089H833.155C832.175 852.332 831.38 851.538 831.38 850.557C831.38 849.577 832.175 848.782 833.155 848.782H838.314V843.624C838.314 842.644 839.108 841.849 840.089 841.849ZM895.557 841.849C896.538 841.849 897.332 842.644 897.332 843.624V850.557C897.332 851.538 896.538 852.332 895.557 852.332H888.624C887.644 852.332 886.849 851.538 886.849 850.557C886.849 849.577 887.644 848.782 888.624 848.782H893.782V843.624C893.782 842.644 894.577 841.849 895.557 841.849ZM859.115 850.557C859.115 849.577 859.909 848.782 860.89 848.782H874.757C875.737 848.782 876.532 849.577 876.532 850.557C876.532 851.538 875.737 852.332 874.757 852.332H860.89C859.909 852.332 859.115 851.538 859.115 850.557ZM786.395 815.89C786.395 814.909 785.6 814.115 784.62 814.115C783.64 814.115 782.845 814.909 782.845 815.89V829.757C782.845 830.737 783.64 831.532 784.62 831.532C785.6 831.532 786.395 830.737 786.395 829.757V815.89ZM786.395 843.624C786.395 842.644 785.6 841.849 784.62 841.849C783.64 841.849 782.845 842.644 782.845 843.624V850.557C782.845 851.538 783.64 852.332 784.62 852.332H791.553C792.534 852.332 793.328 851.538 793.328 850.557C793.328 849.577 792.534 848.782 791.553 848.782H786.395V843.624ZM805.421 848.782C804.441 848.782 803.646 849.577 803.646 850.557C803.646 851.538 804.441 852.332 805.421 852.332H819.288C820.268 852.332 821.063 851.538 821.063 850.557C821.063 849.577 820.268 848.782 819.288 848.782H805.421Z" fill="#141414"/>
<path d="M812.399 751.157L831.076 783.507H793.722L812.399 751.157Z" fill="#D95252" stroke="#141414" stroke-width="3" stroke-linejoin="round"/>
<path d="M865.019 804.639C866.781 803.618 868.955 803.618 870.716 804.639L883.329 811.952C885.082 812.968 886.16 814.84 886.16 816.865V831.532C886.16 833.557 885.082 835.43 883.329 836.446L870.716 843.758C868.955 844.78 866.781 844.78 865.019 843.758L852.406 836.446C850.654 835.43 849.575 833.557 849.575 831.532V816.865C849.575 814.84 850.654 812.968 852.406 811.952L865.019 804.639Z" fill="#FEF285" stroke="#141414" stroke-width="3" stroke-linejoin="round"/>
<path d="M867.956 787.013C878.691 787.013 887.393 778.311 887.393 767.576C887.393 756.842 878.691 748.14 867.956 748.14C857.222 748.14 848.52 756.842 848.52 767.576C848.52 778.311 857.222 787.013 867.956 787.013Z" fill="#47CAD2" stroke="#141414" stroke-width="3"/>
<path d="M824.203 805.117H800.95C797.421 805.117 794.56 807.978 794.56 811.507V834.76C794.56 838.289 797.421 841.15 800.95 841.15H824.203C827.732 841.15 830.593 838.289 830.593 834.76V811.507C830.593 807.978 827.732 805.117 824.203 805.117Z" fill="#BCFA8B" stroke="#141414" stroke-width="3" stroke-linejoin="round"/>
<rect x="75" y="30" width="300" height="130" rx="20" fill="#C1C1C1"/>
<path d="M136.719 81.9058C136.719 83.9159 136.332 85.5964 135.559 86.9473C134.794 88.29 133.683 89.3032 132.227 89.9868C130.77 90.6623 129.016 91 126.965 91H121.912V73.1533H127.515C129.386 73.1533 131.01 73.487 132.385 74.1543C133.761 74.8135 134.827 75.7941 135.583 77.0962C136.34 78.3901 136.719 79.9933 136.719 81.9058ZM132.788 82.0034C132.788 80.6851 132.593 79.6027 132.202 78.7563C131.82 77.9019 131.25 77.2712 130.493 76.8643C129.744 76.4574 128.817 76.2539 127.71 76.2539H125.696V87.875H127.319C129.167 87.875 130.538 87.3826 131.433 86.3979C132.336 85.4132 132.788 83.9484 132.788 82.0034ZM145.752 77.0962C147.013 77.0962 148.1 77.3403 149.011 77.8286C149.923 78.3088 150.627 79.0086 151.123 79.9282C151.619 80.8478 151.868 81.9709 151.868 83.2974V85.104H143.066C143.107 86.1538 143.42 86.9798 144.006 87.582C144.6 88.1761 145.422 88.4731 146.472 88.4731C147.343 88.4731 148.14 88.3836 148.865 88.2046C149.589 88.0256 150.334 87.757 151.099 87.3989V90.2798C150.423 90.6134 149.715 90.8576 148.975 91.0122C148.242 91.1668 147.351 91.2441 146.301 91.2441C144.934 91.2441 143.722 90.9919 142.664 90.4873C141.614 89.9827 140.788 89.2137 140.186 88.1802C139.591 87.1466 139.294 85.8446 139.294 84.2739C139.294 82.6789 139.563 81.3524 140.1 80.2944C140.645 79.2284 141.402 78.4308 142.371 77.9019C143.339 77.3647 144.466 77.0962 145.752 77.0962ZM145.776 79.7451C145.052 79.7451 144.45 79.9771 143.97 80.4409C143.498 80.9048 143.225 81.6331 143.152 82.626H148.376C148.368 82.0726 148.267 81.5802 148.071 81.1489C147.884 80.7176 147.599 80.3758 147.217 80.1235C146.842 79.8713 146.362 79.7451 145.776 79.7451ZM164.417 86.9473C164.417 87.875 164.197 88.6603 163.757 89.3032C163.326 89.938 162.679 90.4222 161.816 90.7559C160.954 91.0814 159.88 91.2441 158.594 91.2441C157.642 91.2441 156.824 91.1831 156.14 91.061C155.465 90.939 154.781 90.7355 154.089 90.4507V87.3745C154.83 87.7082 155.623 87.9849 156.47 88.2046C157.324 88.4162 158.073 88.522 158.716 88.522C159.44 88.522 159.957 88.4162 160.266 88.2046C160.583 87.9849 160.742 87.7 160.742 87.3501C160.742 87.1222 160.677 86.9188 160.547 86.7397C160.425 86.5526 160.156 86.3451 159.741 86.1172C159.326 85.8812 158.675 85.576 157.788 85.2017C156.934 84.8436 156.23 84.4814 155.676 84.1152C155.131 83.749 154.724 83.3177 154.456 82.8213C154.195 82.3167 154.065 81.6779 154.065 80.9048C154.065 79.6434 154.553 78.6953 155.53 78.0605C156.514 77.4176 157.829 77.0962 159.473 77.0962C160.319 77.0962 161.125 77.1816 161.89 77.3525C162.663 77.5234 163.456 77.7961 164.27 78.1704L163.147 80.856C162.472 80.563 161.833 80.3229 161.23 80.1357C160.636 79.9486 160.03 79.855 159.412 79.855C158.866 79.855 158.455 79.9282 158.179 80.0747C157.902 80.2212 157.764 80.445 157.764 80.7461C157.764 80.9658 157.833 81.1611 157.971 81.332C158.118 81.5029 158.394 81.6942 158.801 81.9058C159.216 82.1092 159.823 82.3737 160.62 82.6992C161.393 83.0166 162.065 83.3503 162.634 83.7002C163.204 84.042 163.643 84.4692 163.953 84.9819C164.262 85.4865 164.417 86.1416 164.417 86.9473ZM171.045 77.3525V91H167.322V77.3525H171.045ZM169.189 72.0059C169.743 72.0059 170.219 72.1361 170.618 72.3965C171.016 72.6488 171.216 73.1248 171.216 73.8247C171.216 74.5164 171.016 74.9966 170.618 75.2651C170.219 75.5256 169.743 75.6558 169.189 75.6558C168.628 75.6558 168.148 75.5256 167.749 75.2651C167.358 74.9966 167.163 74.5164 167.163 73.8247C167.163 73.1248 167.358 72.6488 167.749 72.3965C168.148 72.1361 168.628 72.0059 169.189 72.0059ZM178.955 97.0059C177.051 97.0059 175.594 96.6722 174.585 96.0049C173.584 95.3457 173.083 94.418 173.083 93.2217C173.083 92.3997 173.34 91.7121 173.853 91.1587C174.365 90.6053 175.118 90.2106 176.111 89.9746C175.728 89.8118 175.395 89.5474 175.11 89.1812C174.825 88.8068 174.683 88.4121 174.683 87.9971C174.683 87.4762 174.833 87.0449 175.134 86.7031C175.435 86.3532 175.871 86.0114 176.44 85.6777C175.724 85.3685 175.155 84.8721 174.731 84.1885C174.316 83.5049 174.109 82.6992 174.109 81.7715C174.109 80.7786 174.325 79.9364 174.756 79.2446C175.195 78.5448 175.83 78.0117 176.66 77.6455C177.498 77.2793 178.516 77.0962 179.712 77.0962C179.964 77.0962 180.257 77.1125 180.591 77.145C180.924 77.1776 181.23 77.2142 181.506 77.2549C181.791 77.2956 181.982 77.3281 182.08 77.3525H186.841V79.2446L184.705 79.7939C184.9 80.0951 185.046 80.4165 185.144 80.7583C185.242 81.1001 185.291 81.4622 185.291 81.8447C185.291 83.3096 184.778 84.453 183.752 85.2749C182.735 86.0887 181.319 86.4956 179.504 86.4956C179.073 86.4712 178.666 86.4386 178.284 86.3979C178.097 86.5444 177.954 86.6991 177.856 86.8618C177.759 87.0246 177.71 87.1955 177.71 87.3745C177.71 87.5535 177.783 87.7041 177.93 87.8262C178.084 87.9401 178.312 88.0296 178.613 88.0947C178.923 88.1517 179.305 88.1802 179.761 88.1802H182.08C183.577 88.1802 184.717 88.5016 185.498 89.1445C186.287 89.7874 186.682 90.7314 186.682 91.9766C186.682 93.5716 186.015 94.8086 184.68 95.6875C183.354 96.5664 181.445 97.0059 178.955 97.0059ZM179.114 94.5767C180.001 94.5767 180.762 94.4912 181.396 94.3203C182.039 94.1576 182.532 93.9215 182.874 93.6123C183.215 93.3112 183.386 92.9491 183.386 92.5259C183.386 92.1841 183.285 91.9115 183.081 91.708C182.886 91.5127 182.585 91.3743 182.178 91.293C181.779 91.2116 181.266 91.1709 180.64 91.1709H178.711C178.255 91.1709 177.844 91.2441 177.478 91.3906C177.12 91.5371 176.835 91.7406 176.624 92.001C176.412 92.2695 176.306 92.5788 176.306 92.9287C176.306 93.4414 176.55 93.8442 177.039 94.1372C177.535 94.4302 178.227 94.5767 179.114 94.5767ZM179.712 84.2251C180.412 84.2251 180.924 84.0094 181.25 83.5781C181.576 83.1468 181.738 82.5609 181.738 81.8203C181.738 80.9984 181.567 80.384 181.226 79.9771C180.892 79.562 180.387 79.3545 179.712 79.3545C179.028 79.3545 178.516 79.562 178.174 79.9771C177.832 80.384 177.661 80.9984 177.661 81.8203C177.661 82.5609 177.828 83.1468 178.162 83.5781C178.503 84.0094 179.02 84.2251 179.712 84.2251ZM196.851 77.0962C198.307 77.0962 199.479 77.495 200.366 78.2925C201.253 79.0819 201.697 80.3514 201.697 82.1011V91H197.974V83.0288C197.974 82.0522 197.795 81.3158 197.437 80.8193C197.087 80.3229 196.533 80.0747 195.776 80.0747C194.637 80.0747 193.86 80.4613 193.445 81.2344C193.03 82.0075 192.822 83.1224 192.822 84.5791V91H189.099V77.3525H191.943L192.444 79.0981H192.651C192.944 78.6261 193.306 78.2437 193.738 77.9507C194.177 77.6577 194.661 77.4421 195.19 77.3037C195.728 77.1654 196.281 77.0962 196.851 77.0962ZM212.317 91V73.1533H216.101V87.875H223.34V91H212.317ZM231.75 77.0718C233.582 77.0718 234.985 77.4705 235.962 78.2681C236.938 79.0656 237.427 80.2782 237.427 81.9058V91H234.827L234.106 89.1445H234.009C233.618 89.6328 233.219 90.0316 232.812 90.3408C232.406 90.6501 231.938 90.8779 231.409 91.0244C230.88 91.1709 230.237 91.2441 229.48 91.2441C228.674 91.2441 227.95 91.0895 227.307 90.7803C226.672 90.471 226.172 89.999 225.806 89.3643C225.439 88.7214 225.256 87.9076 225.256 86.9229C225.256 85.4743 225.765 84.4082 226.782 83.7246C227.799 83.0329 229.325 82.6504 231.36 82.5771L233.728 82.5039V81.9058C233.728 81.1896 233.541 80.6647 233.167 80.3311C232.792 79.9974 232.271 79.8306 231.604 79.8306C230.945 79.8306 230.298 79.9242 229.663 80.1113C229.028 80.2985 228.394 80.5345 227.759 80.8193L226.526 78.3047C227.25 77.9222 228.06 77.6211 228.955 77.4014C229.858 77.1816 230.79 77.0718 231.75 77.0718ZM233.728 84.6768L232.288 84.7256C231.083 84.7581 230.245 84.9738 229.773 85.3726C229.309 85.7713 229.077 86.2962 229.077 86.9473C229.077 87.5169 229.244 87.9238 229.578 88.168C229.911 88.404 230.347 88.522 230.884 88.522C231.681 88.522 232.353 88.286 232.898 87.814C233.451 87.342 233.728 86.6706 233.728 85.7998V84.6768ZM249.023 77.0962C250.48 77.0962 251.652 77.495 252.539 78.2925C253.426 79.0819 253.87 80.3514 253.87 82.1011V91H250.146V83.0288C250.146 82.0522 249.967 81.3158 249.609 80.8193C249.259 80.3229 248.706 80.0747 247.949 80.0747C246.81 80.0747 246.033 80.4613 245.618 81.2344C245.203 82.0075 244.995 83.1224 244.995 84.5791V91H241.272V77.3525H244.116L244.617 79.0981H244.824C245.117 78.6261 245.479 78.2437 245.911 77.9507C246.35 77.6577 246.834 77.4421 247.363 77.3037C247.9 77.1654 248.454 77.0962 249.023 77.0962ZM261.694 97.0059C259.79 97.0059 258.333 96.6722 257.324 96.0049C256.323 95.3457 255.823 94.418 255.823 93.2217C255.823 92.3997 256.079 91.7121 256.592 91.1587C257.104 90.6053 257.857 90.2106 258.85 89.9746C258.468 89.8118 258.134 89.5474 257.849 89.1812C257.564 88.8068 257.422 88.4121 257.422 87.9971C257.422 87.4762 257.572 87.0449 257.874 86.7031C258.175 86.3532 258.61 86.0114 259.18 85.6777C258.464 85.3685 257.894 84.8721 257.471 84.1885C257.056 83.5049 256.848 82.6992 256.848 81.7715C256.848 80.7786 257.064 79.9364 257.495 79.2446C257.935 78.5448 258.569 78.0117 259.399 77.6455C260.238 77.2793 261.255 77.0962 262.451 77.0962C262.703 77.0962 262.996 77.1125 263.33 77.145C263.664 77.1776 263.969 77.2142 264.246 77.2549C264.53 77.2956 264.722 77.3281 264.819 77.3525H269.58V79.2446L267.444 79.7939C267.639 80.0951 267.786 80.4165 267.883 80.7583C267.981 81.1001 268.03 81.4622 268.03 81.8447C268.03 83.3096 267.517 84.453 266.492 85.2749C265.474 86.0887 264.058 86.4956 262.244 86.4956C261.812 86.4712 261.405 86.4386 261.023 86.3979C260.836 86.5444 260.693 86.6991 260.596 86.8618C260.498 87.0246 260.449 87.1955 260.449 87.3745C260.449 87.5535 260.522 87.7041 260.669 87.8262C260.824 87.9401 261.051 88.0296 261.353 88.0947C261.662 88.1517 262.044 88.1802 262.5 88.1802H264.819C266.317 88.1802 267.456 88.5016 268.237 89.1445C269.027 89.7874 269.421 90.7314 269.421 91.9766C269.421 93.5716 268.754 94.8086 267.419 95.6875C266.093 96.5664 264.185 97.0059 261.694 97.0059ZM261.853 94.5767C262.74 94.5767 263.501 94.4912 264.136 94.3203C264.779 94.1576 265.271 93.9215 265.613 93.6123C265.955 93.3112 266.125 92.9491 266.125 92.5259C266.125 92.1841 266.024 91.9115 265.82 91.708C265.625 91.5127 265.324 91.3743 264.917 91.293C264.518 91.2116 264.006 91.1709 263.379 91.1709H261.45C260.994 91.1709 260.583 91.2441 260.217 91.3906C259.859 91.5371 259.574 91.7406 259.363 92.001C259.151 92.2695 259.045 92.5788 259.045 92.9287C259.045 93.4414 259.29 93.8442 259.778 94.1372C260.274 94.4302 260.966 94.5767 261.853 94.5767ZM262.451 84.2251C263.151 84.2251 263.664 84.0094 263.989 83.5781C264.315 83.1468 264.478 82.5609 264.478 81.8203C264.478 80.9984 264.307 80.384 263.965 79.9771C263.631 79.562 263.127 79.3545 262.451 79.3545C261.768 79.3545 261.255 79.562 260.913 79.9771C260.571 80.384 260.4 80.9984 260.4 81.8203C260.4 82.5609 260.567 83.1468 260.901 83.5781C261.243 84.0094 261.759 84.2251 262.451 84.2251ZM284.363 77.3525V91H281.506L281.006 89.2544H280.811C280.518 89.7183 280.151 90.0967 279.712 90.3896C279.272 90.6826 278.788 90.8983 278.259 91.0366C277.73 91.175 277.181 91.2441 276.611 91.2441C275.635 91.2441 274.784 91.0732 274.06 90.7314C273.336 90.3815 272.77 89.8403 272.363 89.1079C271.965 88.3755 271.765 87.4233 271.765 86.2515V77.3525H275.488V85.3237C275.488 86.3003 275.663 87.0368 276.013 87.5332C276.363 88.0296 276.921 88.2778 277.686 88.2778C278.442 88.2778 279.036 88.1069 279.468 87.7651C279.899 87.4152 280.2 86.9066 280.371 86.2393C280.55 85.5638 280.64 84.7419 280.64 83.7734V77.3525H284.363ZM293.86 77.0718C295.691 77.0718 297.095 77.4705 298.071 78.2681C299.048 79.0656 299.536 80.2782 299.536 81.9058V91H296.936L296.216 89.1445H296.118C295.728 89.6328 295.329 90.0316 294.922 90.3408C294.515 90.6501 294.047 90.8779 293.518 91.0244C292.989 91.1709 292.346 91.2441 291.589 91.2441C290.784 91.2441 290.059 91.0895 289.417 90.7803C288.782 90.471 288.281 89.999 287.915 89.3643C287.549 88.7214 287.366 87.9076 287.366 86.9229C287.366 85.4743 287.874 84.4082 288.892 83.7246C289.909 83.0329 291.435 82.6504 293.469 82.5771L295.837 82.5039V81.9058C295.837 81.1896 295.65 80.6647 295.276 80.3311C294.902 79.9974 294.381 79.8306 293.713 79.8306C293.054 79.8306 292.407 79.9242 291.772 80.1113C291.138 80.2985 290.503 80.5345 289.868 80.8193L288.635 78.3047C289.36 77.9222 290.169 77.6211 291.064 77.4014C291.968 77.1816 292.9 77.0718 293.86 77.0718ZM295.837 84.6768L294.397 84.7256C293.193 84.7581 292.354 84.9738 291.882 85.3726C291.418 85.7713 291.187 86.2962 291.187 86.9473C291.187 87.5169 291.353 87.9238 291.687 88.168C292.021 88.404 292.456 88.522 292.993 88.522C293.791 88.522 294.462 88.286 295.007 87.814C295.561 87.342 295.837 86.6706 295.837 85.7998V84.6768ZM307.373 97.0059C305.469 97.0059 304.012 96.6722 303.003 96.0049C302.002 95.3457 301.501 94.418 301.501 93.2217C301.501 92.3997 301.758 91.7121 302.271 91.1587C302.783 90.6053 303.536 90.2106 304.529 89.9746C304.146 89.8118 303.813 89.5474 303.528 89.1812C303.243 88.8068 303.101 88.4121 303.101 87.9971C303.101 87.4762 303.251 87.0449 303.552 86.7031C303.853 86.3532 304.289 86.0114 304.858 85.6777C304.142 85.3685 303.573 84.8721 303.149 84.1885C302.734 83.5049 302.527 82.6992 302.527 81.7715C302.527 80.7786 302.743 79.9364 303.174 79.2446C303.613 78.5448 304.248 78.0117 305.078 77.6455C305.916 77.2793 306.934 77.0962 308.13 77.0962C308.382 77.0962 308.675 77.1125 309.009 77.145C309.342 77.1776 309.648 77.2142 309.924 77.2549C310.209 77.2956 310.4 77.3281 310.498 77.3525H315.259V79.2446L313.123 79.7939C313.318 80.0951 313.464 80.4165 313.562 80.7583C313.66 81.1001 313.708 81.4622 313.708 81.8447C313.708 83.3096 313.196 84.453 312.17 85.2749C311.153 86.0887 309.737 86.4956 307.922 86.4956C307.491 86.4712 307.084 86.4386 306.702 86.3979C306.514 86.5444 306.372 86.6991 306.274 86.8618C306.177 87.0246 306.128 87.1955 306.128 87.3745C306.128 87.5535 306.201 87.7041 306.348 87.8262C306.502 87.9401 306.73 88.0296 307.031 88.0947C307.34 88.1517 307.723 88.1802 308.179 88.1802H310.498C311.995 88.1802 313.135 88.5016 313.916 89.1445C314.705 89.7874 315.1 90.7314 315.1 91.9766C315.1 93.5716 314.433 94.8086 313.098 95.6875C311.772 96.5664 309.863 97.0059 307.373 97.0059ZM307.532 94.5767C308.419 94.5767 309.18 94.4912 309.814 94.3203C310.457 94.1576 310.95 93.9215 311.292 93.6123C311.633 93.3112 311.804 92.9491 311.804 92.5259C311.804 92.1841 311.702 91.9115 311.499 91.708C311.304 91.5127 311.003 91.3743 310.596 91.293C310.197 91.2116 309.684 91.1709 309.058 91.1709H307.129C306.673 91.1709 306.262 91.2441 305.896 91.3906C305.538 91.5371 305.253 91.7406 305.042 92.001C304.83 92.2695 304.724 92.5788 304.724 92.9287C304.724 93.4414 304.968 93.8442 305.457 94.1372C305.953 94.4302 306.645 94.5767 307.532 94.5767ZM308.13 84.2251C308.83 84.2251 309.342 84.0094 309.668 83.5781C309.993 83.1468 310.156 82.5609 310.156 81.8203C310.156 80.9984 309.985 80.384 309.644 79.9771C309.31 79.562 308.805 79.3545 308.13 79.3545C307.446 79.3545 306.934 79.562 306.592 79.9771C306.25 80.384 306.079 80.9984 306.079 81.8203C306.079 82.5609 306.246 83.1468 306.58 83.5781C306.921 84.0094 307.438 84.2251 308.13 84.2251ZM323.145 77.0962C324.406 77.0962 325.492 77.3403 326.404 77.8286C327.315 78.3088 328.019 79.0086 328.516 79.9282C329.012 80.8478 329.26 81.9709 329.26 83.2974V85.104H320.459C320.5 86.1538 320.813 86.9798 321.399 87.582C321.993 88.1761 322.815 88.4731 323.865 88.4731C324.736 88.4731 325.533 88.3836 326.257 88.2046C326.982 88.0256 327.726 87.757 328.491 87.3989V90.2798C327.816 90.6134 327.108 90.8576 326.367 91.0122C325.635 91.1668 324.744 91.2441 323.694 91.2441C322.327 91.2441 321.114 90.9919 320.056 90.4873C319.006 89.9827 318.18 89.2137 317.578 88.1802C316.984 87.1466 316.687 85.8446 316.687 84.2739C316.687 82.6789 316.956 81.3524 317.493 80.2944C318.038 79.2284 318.795 78.4308 319.763 77.9019C320.732 77.3647 321.859 77.0962 323.145 77.0962ZM323.169 79.7451C322.445 79.7451 321.842 79.9771 321.362 80.4409C320.89 80.9048 320.618 81.6331 320.544 82.626H325.769C325.761 82.0726 325.659 81.5802 325.464 81.1489C325.277 80.7176 324.992 80.3758 324.609 80.1235C324.235 79.8713 323.755 79.7451 323.169 79.7451ZM192.468 114.044C192.468 115.102 192.212 116.021 191.699 116.803C191.187 117.584 190.438 118.186 189.453 118.609C188.477 119.033 187.288 119.244 185.889 119.244C185.27 119.244 184.664 119.203 184.07 119.122C183.484 119.041 182.918 118.923 182.373 118.768C181.836 118.605 181.323 118.406 180.835 118.17V114.654C181.681 115.029 182.56 115.366 183.472 115.667C184.383 115.969 185.286 116.119 186.182 116.119C186.8 116.119 187.297 116.038 187.671 115.875C188.053 115.712 188.33 115.488 188.501 115.204C188.672 114.919 188.757 114.593 188.757 114.227C188.757 113.779 188.607 113.397 188.306 113.08C188.005 112.762 187.59 112.465 187.061 112.188C186.54 111.912 185.95 111.615 185.291 111.297C184.875 111.102 184.424 110.866 183.936 110.589C183.447 110.305 182.983 109.959 182.544 109.552C182.104 109.145 181.742 108.653 181.458 108.075C181.181 107.489 181.042 106.789 181.042 105.975C181.042 104.909 181.287 103.998 181.775 103.241C182.263 102.484 182.959 101.906 183.862 101.507C184.774 101.1 185.848 100.897 187.085 100.897C188.013 100.897 188.896 101.007 189.734 101.227C190.58 101.438 191.463 101.747 192.383 102.154L191.162 105.096C190.34 104.763 189.604 104.506 188.953 104.327C188.302 104.14 187.638 104.046 186.963 104.046C186.491 104.046 186.088 104.124 185.754 104.278C185.421 104.425 185.168 104.636 184.998 104.913C184.827 105.182 184.741 105.495 184.741 105.853C184.741 106.276 184.863 106.634 185.107 106.927C185.36 107.212 185.734 107.489 186.23 107.757C186.735 108.026 187.362 108.339 188.11 108.697C189.022 109.129 189.799 109.58 190.442 110.052C191.093 110.516 191.593 111.065 191.943 111.7C192.293 112.327 192.468 113.108 192.468 114.044ZM193.457 105.353H197.534L200.11 113.031C200.191 113.275 200.26 113.523 200.317 113.775C200.374 114.028 200.423 114.288 200.464 114.557C200.505 114.825 200.537 115.106 200.562 115.399H200.635C200.684 114.959 200.749 114.549 200.83 114.166C200.92 113.784 201.029 113.405 201.16 113.031L203.687 105.353H207.678L201.904 120.746C201.554 121.69 201.099 122.475 200.537 123.102C199.976 123.736 199.329 124.212 198.596 124.53C197.872 124.847 197.074 125.006 196.204 125.006C195.78 125.006 195.414 124.981 195.105 124.933C194.796 124.892 194.531 124.847 194.312 124.798V121.844C194.482 121.885 194.698 121.922 194.958 121.954C195.219 121.987 195.492 122.003 195.776 122.003C196.297 122.003 196.745 121.893 197.119 121.673C197.493 121.454 197.807 121.157 198.059 120.782C198.311 120.416 198.511 120.013 198.657 119.574L198.877 118.902L193.457 105.353ZM219.165 114.947C219.165 115.875 218.945 116.66 218.506 117.303C218.075 117.938 217.428 118.422 216.565 118.756C215.702 119.081 214.628 119.244 213.342 119.244C212.39 119.244 211.572 119.183 210.889 119.061C210.213 118.939 209.53 118.736 208.838 118.451V115.375C209.578 115.708 210.372 115.985 211.218 116.205C212.073 116.416 212.821 116.522 213.464 116.522C214.189 116.522 214.705 116.416 215.015 116.205C215.332 115.985 215.491 115.7 215.491 115.35C215.491 115.122 215.426 114.919 215.295 114.74C215.173 114.553 214.905 114.345 214.49 114.117C214.075 113.881 213.424 113.576 212.537 113.202C211.682 112.844 210.978 112.481 210.425 112.115C209.88 111.749 209.473 111.318 209.204 110.821C208.944 110.317 208.813 109.678 208.813 108.905C208.813 107.643 209.302 106.695 210.278 106.061C211.263 105.418 212.577 105.096 214.221 105.096C215.068 105.096 215.873 105.182 216.638 105.353C217.411 105.523 218.205 105.796 219.019 106.17L217.896 108.856C217.22 108.563 216.581 108.323 215.979 108.136C215.385 107.949 214.779 107.855 214.16 107.855C213.615 107.855 213.204 107.928 212.927 108.075C212.651 108.221 212.512 108.445 212.512 108.746C212.512 108.966 212.581 109.161 212.72 109.332C212.866 109.503 213.143 109.694 213.55 109.906C213.965 110.109 214.571 110.374 215.369 110.699C216.142 111.017 216.813 111.35 217.383 111.7C217.952 112.042 218.392 112.469 218.701 112.982C219.01 113.486 219.165 114.142 219.165 114.947ZM227.82 116.278C228.227 116.278 228.621 116.237 229.004 116.156C229.395 116.074 229.781 115.973 230.164 115.851V118.622C229.765 118.801 229.268 118.947 228.674 119.061C228.088 119.183 227.445 119.244 226.746 119.244C225.932 119.244 225.199 119.114 224.548 118.854C223.905 118.585 223.397 118.125 223.022 117.474C222.656 116.815 222.473 115.899 222.473 114.728V108.148H220.691V106.573L222.742 105.328L223.816 102.447H226.196V105.353H230.017V108.148H226.196V114.728C226.196 115.248 226.343 115.639 226.636 115.899C226.937 116.152 227.332 116.278 227.82 116.278ZM238.562 105.096C239.823 105.096 240.91 105.34 241.821 105.829C242.733 106.309 243.437 107.009 243.933 107.928C244.43 108.848 244.678 109.971 244.678 111.297V113.104H235.876C235.917 114.154 236.23 114.98 236.816 115.582C237.41 116.176 238.232 116.473 239.282 116.473C240.153 116.473 240.951 116.384 241.675 116.205C242.399 116.026 243.144 115.757 243.909 115.399V118.28C243.233 118.613 242.525 118.858 241.785 119.012C241.052 119.167 240.161 119.244 239.111 119.244C237.744 119.244 236.532 118.992 235.474 118.487C234.424 117.983 233.598 117.214 232.996 116.18C232.402 115.147 232.104 113.845 232.104 112.274C232.104 110.679 232.373 109.352 232.91 108.294C233.455 107.228 234.212 106.431 235.181 105.902C236.149 105.365 237.276 105.096 238.562 105.096ZM238.586 107.745C237.862 107.745 237.26 107.977 236.78 108.441C236.308 108.905 236.035 109.633 235.962 110.626H241.187C241.178 110.073 241.077 109.58 240.881 109.149C240.694 108.718 240.409 108.376 240.027 108.124C239.653 107.871 239.172 107.745 238.586 107.745ZM263.733 105.096C265.279 105.096 266.447 105.495 267.236 106.292C268.034 107.082 268.433 108.351 268.433 110.101V119H264.697V111.029C264.697 110.052 264.53 109.316 264.197 108.819C263.863 108.323 263.346 108.075 262.646 108.075C261.662 108.075 260.962 108.429 260.547 109.137C260.132 109.837 259.924 110.842 259.924 112.152V119H256.201V111.029C256.201 110.378 256.128 109.833 255.981 109.393C255.835 108.954 255.611 108.624 255.31 108.404C255.009 108.185 254.622 108.075 254.15 108.075C253.459 108.075 252.913 108.25 252.515 108.6C252.124 108.941 251.843 109.45 251.672 110.125C251.51 110.793 251.428 111.611 251.428 112.579V119H247.705V105.353H250.549L251.05 107.098H251.257C251.534 106.626 251.88 106.244 252.295 105.951C252.718 105.658 253.182 105.442 253.687 105.304C254.191 105.165 254.704 105.096 255.225 105.096C256.226 105.096 257.072 105.259 257.764 105.584C258.464 105.91 259.001 106.415 259.375 107.098H259.705C260.111 106.398 260.685 105.89 261.426 105.572C262.174 105.255 262.944 105.096 263.733 105.096Z" fill="black"/>
</svg>
