<svg width="800" height="800" viewBox="0 0 800 800" fill="none" xmlns="http://www.w3.org/2000/svg">
<path fill-rule="evenodd" clip-rule="evenodd" d="M88 78C82.4772 78 78 82.4772 78 88V127.062C78 132.585 82.4772 137.062 88 137.062C93.5228 137.062 98 132.585 98 127.062V98H127.062C132.585 98 137.062 93.5228 137.062 88C137.062 82.4772 132.585 78 127.062 78H88ZM205.188 78C199.665 78 195.188 82.4772 195.188 88C195.188 93.5228 199.665 98 205.188 98H283.312C288.835 98 293.312 93.5228 293.312 88C293.312 82.4772 288.835 78 283.312 78H205.188ZM361.438 78C355.915 78 351.438 82.4772 351.438 88C351.438 93.5228 355.915 98 361.438 98H390.5V127.062C390.5 132.585 394.977 137.062 400.5 137.062C406.023 137.062 410.5 132.585 410.5 127.062V98H439.562C445.085 98 449.562 93.5228 449.562 88C449.562 82.4772 445.085 78 439.562 78H400.5H361.438ZM98 205.188C98 199.665 93.5228 195.188 88 195.188C82.4772 195.188 78 199.665 78 205.188V283.312C78 288.835 82.4772 293.312 88 293.312C93.5228 293.312 98 288.835 98 283.312V205.188ZM410.5 205.188C410.5 199.665 406.023 195.188 400.5 195.188C394.977 195.188 390.5 199.665 390.5 205.188V283.312C390.5 288.835 394.977 293.312 400.5 293.312C406.023 293.312 410.5 288.835 410.5 283.312V205.188ZM98 361.438C98 355.915 93.5228 351.438 88 351.438C82.4772 351.438 78 355.915 78 361.438V400.5V439.562C78 445.085 82.4772 449.562 88 449.562C93.5228 449.562 98 445.085 98 439.562V410.5H127.062C132.585 410.5 137.062 406.023 137.062 400.5C137.062 394.977 132.585 390.5 127.062 390.5H98V361.438ZM410.5 361.438C410.5 355.915 406.023 351.438 400.5 351.438C394.977 351.438 390.5 355.915 390.5 361.438V390.5H361.438C355.915 390.5 351.438 394.977 351.438 400.5C351.438 406.023 355.915 410.5 361.438 410.5H390.5V439.562C390.5 445.085 394.977 449.562 400.5 449.562C406.023 449.562 410.5 445.085 410.5 439.562V410.5H439.562C445.085 410.5 449.562 406.023 449.562 400.5C449.562 394.977 445.085 390.5 439.562 390.5H410.5V361.438ZM205.188 390.5C199.665 390.5 195.188 394.977 195.188 400.5C195.188 406.023 199.665 410.5 205.188 410.5H283.312C288.835 410.5 293.312 406.023 293.312 400.5C293.312 394.977 288.835 390.5 283.312 390.5H205.188ZM517.688 78C512.165 78 507.688 82.4772 507.688 88C507.688 93.5228 512.165 98 517.688 98H595.812C601.335 98 605.812 93.5228 605.812 88C605.812 82.4772 601.335 78 595.812 78H517.688ZM673.938 78C668.415 78 663.938 82.4772 663.938 88C663.938 93.5228 668.415 98 673.938 98H703V127.062C703 132.585 707.477 137.062 713 137.062C718.523 137.062 723 132.585 723 127.062V88C723 82.4772 718.523 78 713 78H673.938ZM723 205.188C723 199.665 718.523 195.188 713 195.188C707.477 195.188 703 199.665 703 205.188V283.312C703 288.835 707.477 293.312 713 293.312C718.523 293.312 723 288.835 723 283.312V205.188ZM723 361.438C723 355.915 718.523 351.438 713 351.438C707.477 351.438 703 355.915 703 361.438V390.5H673.938C668.415 390.5 663.938 394.977 663.938 400.5C663.938 406.023 668.415 410.5 673.938 410.5H703V439.562C703 445.085 707.477 449.562 713 449.562C718.523 449.562 723 445.085 723 439.562V400.5V361.438ZM517.688 390.5C512.165 390.5 507.688 394.977 507.688 400.5C507.688 406.023 512.165 410.5 517.688 410.5H595.812C601.335 410.5 605.812 406.023 605.812 400.5C605.812 394.977 601.335 390.5 595.812 390.5H517.688ZM400.5 507.688C406.023 507.688 410.5 512.165 410.5 517.688V595.812C410.5 601.335 406.023 605.812 400.5 605.812C394.977 605.812 390.5 601.335 390.5 595.812V517.688C390.5 512.165 394.977 507.688 400.5 507.688ZM713 507.688C718.523 507.688 723 512.165 723 517.688V595.812C723 601.335 718.523 605.812 713 605.812C707.477 605.812 703 601.335 703 595.812V517.688C703 512.165 707.477 507.688 713 507.688ZM400.5 663.938C406.023 663.938 410.5 668.415 410.5 673.938V703H439.562C445.085 703 449.562 707.477 449.562 713C449.562 718.523 445.085 723 439.562 723H400.5H361.438C355.915 723 351.438 718.523 351.438 713C351.438 707.477 355.915 703 361.438 703H390.5V673.938C390.5 668.415 394.977 663.938 400.5 663.938ZM713 663.938C718.523 663.938 723 668.415 723 673.938V713C723 718.523 718.523 723 713 723H673.938C668.415 723 663.938 718.523 663.938 713C663.938 707.477 668.415 703 673.938 703H703V673.938C703 668.415 707.477 663.938 713 663.938ZM507.688 713C507.688 707.477 512.165 703 517.688 703H595.812C601.335 703 605.812 707.477 605.812 713C605.812 718.523 601.335 723 595.812 723H517.688C512.165 723 507.688 718.523 507.688 713ZM98 517.688C98 512.165 93.5228 507.688 88 507.688C82.4772 507.688 78 512.165 78 517.688V595.812C78 601.335 82.4772 605.812 88 605.812C93.5228 605.812 98 601.335 98 595.812V517.688ZM98 673.938C98 668.415 93.5228 663.938 88 663.938C82.4772 663.938 78 668.415 78 673.938V713C78 718.523 82.4772 723 88 723H127.062C132.585 723 137.062 718.523 137.062 713C137.062 707.477 132.585 703 127.062 703H98V673.938ZM205.188 703C199.665 703 195.188 707.477 195.188 713C195.188 718.523 199.665 723 205.188 723H283.312C288.835 723 293.312 718.523 293.312 713C293.312 707.477 288.835 703 283.312 703H205.188Z" fill="#141414"/>
<path d="M244.5 153L349.722 335.25H139.278L244.5 153Z" fill="#D95252" stroke="#141414" stroke-width="20" stroke-linejoin="round"/>
<path d="M540.95 454.306C550.876 448.551 563.124 448.551 573.05 454.306L644.107 495.503C653.98 501.227 660.057 511.775 660.057 523.186V605.814C660.057 617.225 653.98 627.773 644.107 633.497L573.05 674.694C563.124 680.449 550.876 680.449 540.95 674.694L469.893 633.497C460.02 627.773 453.943 617.225 453.943 605.814V523.186C453.943 511.775 460.02 501.227 469.893 495.503L540.95 454.306Z" fill="#FEF285" stroke="#141414" stroke-width="20" stroke-linejoin="round"/>
<circle cx="557.5" cy="245.5" r="109.5" fill="#47CAD2" stroke="#141414" stroke-width="20"/>
<rect x="144" y="457" width="203" height="203" rx="36" fill="#BCFA8B" stroke="#141414" stroke-width="20" stroke-linejoin="round"/>
</svg>
