<svg width="184" height="184" viewBox="0 0 184 184" fill="none" xmlns="http://www.w3.org/2000/svg">
<path fill-rule="evenodd" clip-rule="evenodd" d="M132.086 78.3176C131.323 78.9242 131.568 80.0169 132.965 80.0398C136.082 80.0902 139.688 78.9608 140.961 78.3731C142.864 77.5003 144.846 74.9016 145.896 71.7704C146.996 68.4872 143.938 65.6176 142.186 68.8591C139.659 73.5279 136.395 75.5547 133.995 77.0445C133.263 77.4989 132.612 77.9034 132.086 78.3176ZM171.806 78.2285C172.229 77.3597 172.6 76.5964 172.908 75.9577C173.687 74.3458 171.695 71.1686 170.109 70.7369C167.552 70.0439 164.605 73.2763 162.324 75.9443C160.284 78.323 154.308 86.8783 151.905 90.3193C151.613 90.7365 151.374 91.0786 151.201 91.3253C151.162 91.3807 151.122 91.4379 151.081 91.4967C149.654 93.5314 146.821 97.5717 149.07 98.7497C151.39 99.9578 155.213 94.6912 157.332 90.981C159.449 87.2802 164.217 79.4793 166.17 77.1516C167.496 75.5721 168.273 76.6419 167.839 77.4636C167.699 77.7292 167.538 78.0061 167.379 78.2783C167.203 78.5801 167.03 78.876 166.894 79.144C165.414 81.9341 164.021 84.96 162.651 87.9376C160.327 92.9864 158.067 97.8966 155.554 101.284C148.778 110.412 142.951 109.403 139.411 105.27C138.443 104.136 137.09 104.902 137.779 106.477C139.797 111.101 143.629 113.902 148.109 112.46C153.703 110.651 159.922 104.49 163.482 96.179C166.49 89.144 169.753 82.4434 171.806 78.2285ZM154.591 74.3458C147.911 80.2001 142.6 89.8426 141.205 93.7636C138.48 101.418 144.247 98.9569 145.76 94.9709C148.773 87.3492 153.732 79.6037 156.705 75.5993C158.99 72.5141 157.367 71.9174 154.591 74.3458ZM99.373 120.049C100.446 119.189 101.518 118.329 102.372 117.46C104.395 115.403 105.474 113.03 109.239 104.748C110.036 102.995 110.954 100.976 112.026 98.6398C114.675 92.8686 112.114 88.7176 106.327 87.8865C100.057 86.9867 93.3259 87.4457 90.677 87.8865C89.5672 88.0715 88.8015 88.8406 87.8485 89.7977C87.1222 90.5271 86.2872 91.3657 85.1083 92.1383C82.3832 93.929 89.5981 92.9281 91.3015 91.9591C91.6202 91.7768 91.942 91.5727 92.2585 91.3721C92.5076 91.2142 92.7534 91.0583 92.9918 90.9168C93.7668 90.4666 94.3272 90.2924 95.3231 90.5174C95.6124 90.5827 95.9388 90.6611 96.2936 90.7463C97.6609 91.0745 99.45 91.5041 101.164 91.6787C102.62 91.8196 103.462 91.5643 104.278 91.317C104.9 91.1283 105.507 90.9444 106.359 90.9444C107.684 90.9444 111.208 92.2029 108.404 98.2861C107.078 101.16 102.388 111.349 100.575 115.362C99.2663 118.268 97.2251 119.394 95.381 120.39C94.2183 121.021 92.7956 120.255 91.5833 119.602C90.872 119.219 90.2331 118.875 89.7617 118.875C87.1262 118.875 83.8775 119.007 83.8057 120.358C83.6949 122.502 82.5351 123.709 81.442 124.393C80.4969 124.986 81.011 125.849 81.7722 125.849C82.2611 125.849 83.1156 125.805 84.0727 125.755C85.291 125.691 86.6756 125.619 87.6841 125.619C89.0836 125.619 90.548 126.248 90.9721 127.406C91.2156 128.073 91.4035 128.639 91.5542 129.093C91.6948 129.516 91.8031 129.842 91.8943 130.064C92.2933 131.042 93.6214 131.143 93.8404 129.825C93.8776 129.599 93.9081 129.314 93.9436 128.983C94.0536 127.958 94.2111 126.49 94.7601 124.949C95.3583 123.268 97.3674 121.657 99.373 120.049ZM153.905 124.615C154.083 124.617 154.26 124.618 154.438 124.618C154.978 124.618 154.978 123.976 154.761 123.531C154.721 123.464 154.682 123.397 154.642 123.331C153.568 121.525 152.536 119.788 152.204 117.548C152.096 117.226 151.524 117.006 151.201 117.226C149.772 118.218 148.21 119.32 147.766 120.982C147.563 121.587 147.477 122.202 147.393 122.809C147.244 123.881 147.098 124.929 146.318 125.849C146.092 126.074 146.092 126.634 146.212 126.946C146.318 127.291 146.749 127.396 147.097 127.185C147.593 126.91 148.033 126.603 148.471 126.298C149.11 125.852 149.743 125.41 150.537 125.078C151.605 124.592 152.746 124.603 153.905 124.615ZM143.205 123.089C143.551 123.195 143.859 122.984 143.995 122.754C144.432 121.318 144.1 119.871 143.661 118.425C143.551 117.878 142.984 117.548 142.637 117.644C140.982 118.218 138.985 119.32 138.644 121.097C138.554 121.652 139.548 121.873 140.311 121.974C140.983 122.112 141.533 122.367 142.083 122.621C142.446 122.788 142.808 122.956 143.205 123.089ZM110.661 69.0749C111.493 70.5395 113.596 72.7253 115.891 73.0652C121.399 73.8778 130.673 72.9912 132.748 68.1796C133.206 67.1171 133.114 66.1518 132.996 64.916C132.878 63.674 132.734 62.1589 133.096 59.9977C133.367 58.3763 131.744 58.184 129.41 57.9074C127.931 57.732 126.165 57.5227 124.415 56.8937C121.69 55.9203 116.545 54.1663 113.255 54.4881C112.426 54.5705 110.995 54.8022 109.262 55.0826C105.406 55.7066 100.058 56.5719 96.543 56.5719C94.0353 56.5719 91.268 56.4217 88.9497 56.2958C87.5117 56.2178 86.2464 56.1491 85.3229 56.1315C80.2014 56.0306 76.2174 57.0221 74.7322 57.6838C73.8723 58.0604 74.0293 58.8179 74.8728 58.8959C75.9883 58.9951 77.3595 58.9799 78.6463 58.9656C79.8575 58.9522 80.994 58.9395 81.7722 59.024C83.3743 59.1945 92.563 60.6819 95.7701 61.2141C98.81 61.7192 99.882 61.494 101.099 61.2384C101.166 61.2243 101.234 61.2101 101.302 61.196C105.081 60.4116 106.969 62.8806 107.838 64.0168C107.89 64.084 107.938 64.1465 107.982 64.2035C108.484 64.8548 109.09 66.0483 109.679 67.2079C110.02 67.8787 110.355 68.5382 110.661 69.0749ZM123.64 101.05C126.23 99.8065 128.492 97.6204 129.795 95.8253C130.954 94.2272 131.097 93.7915 127.682 91.9457C126.29 91.1912 125.193 90.5161 124.221 89.9181C122.349 88.7654 120.941 87.8992 118.78 87.3035C113.285 85.7834 113.105 86.8304 114.364 88.2402C116.38 90.4945 117.671 93.6076 114.703 100.394C114.675 100.457 114.648 100.519 114.622 100.58C113.845 102.36 113.634 102.845 114.814 102.827C116.797 102.79 120.274 102.667 123.64 101.05ZM93.5406 111.551C92.8075 111.487 92.0463 111.735 91.7052 112.598C91.5161 113.075 91.1448 114.38 91.3015 115.229C91.4309 115.922 92.0004 116.225 92.5444 116.225C93.158 116.225 93.9144 115.178 94.8184 113.489C95.4848 112.253 94.5415 111.634 93.5406 111.551ZM99.1646 99.8885C98.0234 99.4709 94.3272 99.4662 93.1787 100.334C91.1496 101.863 97.6955 103.31 98.6384 102.937C99.5865 102.565 100.306 100.302 99.1646 99.8885ZM57.3077 89.1261C57.8196 89.3927 60.6646 90.3106 64.2413 90.5359C68.7303 90.8156 75.4176 89.7276 78.2465 86.0221C79.148 84.838 80.091 84.7045 82.0531 84.617C82.7545 84.5807 82.909 83.9198 82.4266 83.5247C81.0179 82.3493 78.8922 81.1463 77.4278 81.3755C76.4502 81.5254 76.0042 82.0373 75.3682 82.7671C75.3023 82.8427 75.2344 82.9207 75.1636 83.0008C74.4097 83.8552 72.9548 83.9103 71.2113 83.8C69.4685 83.6992 66.434 83.3687 65.2302 82.9047C64.6151 82.6656 64.6446 81.9633 65.279 81.8254C69.1085 80.9993 72.272 78.1246 73.4044 74.1031C73.5684 73.5194 74.0155 73.3776 74.7395 73.6482C74.82 73.6784 74.9456 73.7241 75.1105 73.784C76.6501 74.3436 81.618 76.1494 85.3459 78.281C88.9291 80.3231 90.722 81.842 91.9577 82.889C92.1445 83.0473 92.3186 83.1948 92.4843 83.3317C93.4371 84.1124 94.9583 84.2684 97.3795 84.0202C97.9123 83.9655 98.03 83.5385 97.7764 83.1387C96.8591 81.7181 95.8556 80.659 94.7388 79.4804C93.2281 77.886 91.51 76.0727 89.5172 72.8494C88.5738 71.3206 87.0103 70.8609 85.1754 71.4581C83.7572 71.9174 82.7082 72.3672 81.9748 72.7666C81.2395 73.1657 80.5799 73.2484 79.7889 72.9183C78.8252 72.5141 77.0292 71.761 75.5557 71.0401C73.9164 70.2366 73.3396 69.7269 72.812 68.4187C68.9773 58.942 57.4509 59.9886 52.7888 64.8191C47.9511 69.8281 48.8223 78.4555 54.5061 80.9072C54.8059 81.036 54.6795 81.3665 54.4325 81.3574C50.2608 81.2037 48.0998 78.5171 46.7236 76.8061C46.4559 76.4733 46.2179 76.1774 46.0006 75.9443C43.173 72.7389 38.0867 71.1626 34.3715 70.0113C32.6847 69.4886 31.2806 69.0534 30.4988 68.5932C28.1377 67.1972 28.2296 65.5254 28.5753 62.872C28.633 62.4218 28.2251 62.2197 27.7962 62.5735C25.931 64.1026 25.947 67.4264 26.7771 69.3369C28.2571 72.7438 30.42 74.5345 42.9749 79.5667C44.1666 80.0437 45.3417 80.5179 46.4879 80.9804C51.817 83.1309 56.5216 85.0294 59.3737 85.7928C62.4748 86.6192 64.6191 86.7205 66.6993 86.6835C67.5312 86.665 67.2779 87.6292 65.89 87.8865C64.6031 88.1299 60.5287 88.2677 57.5478 88.2264C57.0078 88.2169 56.7983 88.8598 57.3077 89.1261ZM43.2403 83.6807C45.8574 84.7273 51.202 85.5998 51.8199 85.6735C52.3341 85.7377 52.5326 85.1957 52.106 85.0121C50.5283 84.3483 47.2175 83.0352 43.7797 81.6717C40.2734 80.2811 36.6349 78.8381 34.5683 77.9781C34.0797 77.776 33.7613 78.281 34.1831 78.6576C36.0785 80.347 39.9015 82.4777 43.2403 83.6807ZM38.8547 93.5158C39.1013 94.5991 40.4778 94.9209 41.324 94.512C42.1701 94.1035 42.403 93.2677 42.198 92.4416C41.9927 91.6148 41.2664 90.9534 40.2336 91.1007C39.2004 91.2473 38.6077 92.4318 38.8547 93.5158ZM33.6733 57.1646L33.6253 57.1788C32.3178 57.5645 30.7015 58.2712 31.2293 59.7862C31.7577 61.3062 34.2316 61.0215 36.609 58.8774C38.5205 57.1509 38.1582 55.411 37.3422 55.0391C36.5485 54.6837 36.0091 55.4213 35.5549 56.0425L35.5435 56.0582C35.0267 56.7625 34.6142 56.885 33.6733 57.1646ZM40.8122 43.615C41.4094 42.6373 40.8607 42.0496 40.0673 42.486C37.3653 43.964 36.1938 47.2059 36.5441 49.8092C36.7839 51.5723 39.0763 51.3423 39.1939 49.4598C39.1975 49.3992 39.2011 49.3389 39.2047 49.279C39.3137 47.4588 39.4059 45.9176 40.8122 43.615ZM46.1755 60.576C45.2442 61.3015 44.7024 61.5493 43.7058 61.5268C42.87 61.5078 42.0209 61.3816 41.1924 61.2584C39.8063 61.0523 38.4778 60.8548 37.3653 61.1822C35.5738 61.7053 34.9878 64.5619 38.6701 64.9842C39.7977 65.1132 40.3219 64.8345 40.9048 64.5247C41.1922 64.372 41.4939 64.2116 41.8892 64.0888C43.2078 63.6794 44.9382 64.9765 46.1352 65.8738C46.4953 66.1437 46.8071 66.3775 47.0449 66.5177C48.0731 67.1239 49.4705 66.6602 49.171 65.1217C48.968 64.0703 48.9768 63.2207 49.2285 62.4356C49.6804 61.0258 51.7715 59.5065 53.4596 58.5556C54.0196 58.2389 53.9621 57.6468 53.3765 57.5688C50.5164 57.1982 48.5322 58.7425 46.5597 60.2776C46.4317 60.3773 46.3037 60.4769 46.1755 60.576ZM72.4108 51.6406C71.812 51.6187 71.2991 51.5999 70.9121 51.7788C69.9939 52.2014 69.7706 52.8348 70.437 53.1428C71.0364 53.4178 72.8604 53.6794 74.3361 53.6794C75.74 53.6794 77.2132 52.9128 78.6594 52.1321C79.2368 51.8198 79.9626 51.6038 80.7127 51.3805C81.837 51.0458 83.0161 50.6949 83.8334 49.979C84.2116 49.6532 84.0039 49.0742 83.5751 49.0423C83.328 49.0264 83.0571 49.0564 82.667 49.0996C82.3799 49.1314 82.0282 49.1703 81.5739 49.2034C81.1756 49.2325 80.7548 49.2321 80.3051 49.2317C79.552 49.231 78.718 49.2302 77.7739 49.3681C77.156 49.4583 76.5696 49.8676 75.9287 50.3149C75.0033 50.9609 73.964 51.6863 72.5511 51.6456C72.5038 51.644 72.457 51.6423 72.4108 51.6406ZM98.0995 48.8311C94.802 49.047 91.3015 50.1444 89.2796 51.2825C88.4613 51.7421 88.6988 52.0679 88.8715 52.2424C89.5201 52.8862 90.8373 52.8112 92.3754 52.7237C92.5049 52.7163 92.636 52.7088 92.7685 52.7017C94.6289 52.6052 101.945 52.1006 104.436 51.5956C107.025 51.0717 108.847 50.3828 109.75 49.786C110.694 49.1707 110.407 48.1469 106.935 48.5558C105.309 48.7493 103.782 48.745 102.181 48.7405C100.897 48.7369 99.5667 48.7331 98.0995 48.8311ZM153.991 62.5502C152.778 61.5174 148.079 59.9516 147.138 59.8787C146.197 59.8047 145.99 60.0347 146.212 60.6772C146.433 61.3153 148.13 65.9942 149.739 66.5819C151.348 67.1605 152.771 67.0132 154.217 66.0312C155.665 65.0389 154.586 63.056 153.991 62.5502ZM154.761 57.2336C153.295 55.5575 150.092 55.7828 149.089 56.0034C148.091 56.2233 147.798 56.5951 148.305 56.9031C149.394 57.5547 151.243 58.0829 153.313 58.4914C155.139 58.8498 155.093 57.6098 154.761 57.2336ZM167.102 133.816C167.019 132.612 165.668 131.946 164.653 132.497C163.641 133.044 163.68 134.582 164.653 135.179C165.626 135.776 167.189 135.124 167.102 133.816ZM137.191 138.512C137.788 139.298 139.359 139.114 139.866 138.246C140.375 137.374 140.136 136.092 138.776 136.006C137.41 135.913 136.451 137.539 137.191 138.512ZM128.632 124.518C129.045 125.73 130.592 125.583 131.713 124.774C132.836 123.962 132.578 122.745 131.021 122.617C129.463 122.479 128.222 123.305 128.632 124.518ZM100.873 142.351C100.465 141.143 98.7496 139.844 97.788 140.574C96.8261 141.308 98.1961 143.582 99.2083 143.926C100.389 144.33 101.283 143.563 100.873 142.351ZM65.2028 131.331C64.3703 132.052 64.6975 133.163 65.6962 133.457C66.6924 133.746 69.2197 132.295 68.6891 131.093C68.1608 129.889 66.0373 130.61 65.2028 131.331ZM72.2031 117.107C72.9989 117.52 75.5968 118.117 76.5172 118.117C77.2573 118.117 77.8614 117.672 77.4347 116.868C77.0084 116.065 74.5504 114.526 73.2037 114.242C72.268 114.04 71.3038 114.31 71.1169 115.234C70.9282 116.156 71.4051 116.694 72.2031 117.107ZM9.37993 82.3859C9.75127 83.5704 11.0815 83.7496 12.3914 83.0654C13.7008 82.3859 14.2822 81.5134 13.7542 80.5034C13.2257 79.5025 11.9443 79.7183 10.8694 80.1083C9.79511 80.494 9.01115 81.1963 9.37993 82.3859ZM17.667 66.3845C17.729 67.2066 18.8958 68.3222 19.7812 68.1796C20.6618 68.0374 21.3863 67.7388 21.347 67.0546C21.3102 66.3704 20.6068 66.1411 19.5349 65.8839C18.46 65.6314 17.6049 65.5628 17.667 66.3845ZM169.023 95.516C168.747 96.5333 168.474 97.543 168.199 98.5295C168.148 98.7127 168.098 98.8932 168.048 99.0717C166.899 103.222 166.049 106.292 157.966 118.218C155.098 122.447 161.328 127.507 163.376 129.049C164.273 129.729 165.166 130.149 165.978 130.531C167.015 131.018 167.922 131.444 168.545 132.273C169.657 133.746 169.421 136.244 167.231 137.112C165.04 137.975 163.546 136.584 162.707 134.848C160.802 130.913 156.546 128.002 152.204 128.177C147.863 128.356 143.716 133.145 142.644 135.418C142.211 136.334 141.979 137.038 141.782 137.639C141.49 138.525 141.273 139.185 140.592 139.968C139.359 141.391 136.472 141.465 135.268 139.421C134.522 138.15 134.962 136.515 135.824 135.657C136.229 135.25 136.911 134.853 137.623 134.439C138.424 133.972 139.264 133.483 139.79 132.934C140.784 131.9 142.365 129.513 142.757 128.503C143.825 125.776 138.72 122.028 135.646 123.755C134.852 124.201 134.164 124.719 133.509 125.212C132.06 126.303 130.775 127.27 128.874 127.061C126.276 126.776 125.552 123.792 127.293 122.424C128.193 121.716 129.577 121.412 130.962 121.108C131.607 120.966 132.251 120.825 132.847 120.642C134.93 120.009 138.612 118.641 139.548 116.446C140.011 115.362 139.612 114.931 138.644 114.242C138.174 113.906 136.984 113.314 135.326 113.673C135.215 113.697 135.082 113.734 134.931 113.777C134.176 113.988 132.969 114.325 131.803 113.847C130.839 113.452 130.062 112.277 130.447 111.051C130.938 109.481 132.594 109.356 133.989 109.356C134.598 109.356 134.883 109.182 134.68 108.695C133.938 106.896 133.465 104.398 133.281 102.79C133.112 101.339 132.531 101.183 131.803 101.532C126 104.298 120.324 104.766 113.614 105.32C113.373 105.34 113.13 105.36 112.886 105.38C112.308 105.426 111.976 105.931 111.777 106.381C111.772 106.393 111.756 106.43 111.729 106.491C111.326 107.413 108.568 113.729 105.907 117.805C104.07 120.628 101.019 123.537 98.7919 125.661C97.585 126.812 96.6201 127.732 96.2219 128.283C95.0928 129.853 96.2219 134.821 97.6474 137.02C98.636 138.549 100.13 139.613 101.215 140.386C101.691 140.725 102.088 141.008 102.328 141.249C103.119 142.034 103.541 143.416 102.669 144.78C101.719 146.267 98.8808 147.016 96.8818 143.287C96.6945 142.94 96.4975 142.54 96.288 142.115C95.8113 141.148 95.2695 140.049 94.6289 139.127C93.6375 137.695 90.0659 133.03 87.7624 131.157C85.6618 129.449 82.201 128.779 79.2358 129.504C76.2727 130.23 72.7839 131.373 68.8644 134.128C67.9025 134.802 66.4869 135.546 64.8662 135.229C62.708 134.812 61.2137 131.767 63.8033 130.064C64.4733 129.621 66.2275 129.255 67.5792 128.972C68.1621 128.85 68.6703 128.744 68.9843 128.654C69.4235 128.53 69.9128 128.411 70.4339 128.283C73.1348 127.623 76.6894 126.755 78.5508 123.976C79.5539 122.415 78.5209 120.408 77.4555 119.843C76.4637 119.316 74.7449 119.127 73.1363 118.951C71.764 118.801 70.4718 118.659 69.7797 118.323C68.3109 117.612 67.3355 116.225 68.0894 114.687C69.0029 112.818 71.6449 112.226 74.5434 113.673C75.148 113.975 75.6731 114.247 76.1551 114.497C77.2891 115.084 78.1845 115.548 79.3141 115.996C81.1447 116.721 83.3098 116.988 85.3299 116.988H85.348C86.1434 116.988 88.6487 116.988 89.0883 115.89C89.2547 115.477 89.3679 114.865 89.4921 114.193C89.7774 112.65 90.1207 110.793 91.3015 110.307C92.1589 109.951 93.0439 109.973 93.8748 109.993C94.6867 110.013 95.4469 110.032 96.0791 109.696C97.1238 109.15 99.0119 105.311 97.2189 104.829C92.1366 103.456 90.1512 102.832 85.7882 100.743C85.3251 100.521 84.4613 100.334 83.3536 100.094C81.7048 99.7362 79.5157 99.2614 77.3035 98.3826C75.5047 97.6661 74.2218 96.9465 73.1267 96.3323C71.9687 95.6827 71.0207 95.151 69.8948 94.8654C69.3044 94.7145 68.4393 94.6187 67.3354 94.4965C65.4829 94.2914 62.9579 94.0119 59.9297 93.2724C55.0963 92.0922 51.3794 89.7232 48.7352 87.8132C46.8649 86.4585 45.4493 86.0729 44.6488 86.4353C43.8468 86.7937 43.5586 87.9325 43.1228 89.7693C42.883 90.7715 43.0395 91.444 43.198 92.1244C43.329 92.6873 43.4614 93.2557 43.3716 94.0208C43.1733 95.7059 41.5133 96.569 39.7425 96.105C37.9718 95.6366 37.3653 94.0208 37.6463 92.6799C37.8025 91.9361 38.0403 91.4651 38.2737 91.0025C38.461 90.6315 38.6456 90.2659 38.7831 89.7693C38.9149 89.2878 38.9922 88.6596 39.0822 87.929C39.2015 86.9591 39.3431 85.8087 39.664 84.5807C39.7491 84.2455 39.4724 83.993 39.1154 83.8C35.3044 81.8091 32.4881 79.7639 31.3865 78.9639C31.289 78.8931 31.2049 78.832 31.1347 78.7816C30.938 78.6397 30.7667 78.5113 30.6155 78.3979C30.1058 78.0156 29.8238 77.8041 29.5624 77.8221C25.9886 78.1065 20.9363 79.7318 16.837 81.4996C15.9707 81.8733 15.1373 82.4611 14.3064 83.0471C12.7998 84.1096 11.3016 85.1662 9.63114 84.9298C7.21962 84.5807 6.1127 81.1278 7.83734 79.6951C9.10851 78.6375 10.4476 78.4511 12.3966 78.1798C13.2054 78.0672 14.1192 77.94 15.1767 77.7299C18.347 77.1056 22.8942 75.5993 25.6726 73.7262C25.8823 73.5194 25.8823 73.5194 25.8823 73.1799C25.6726 71.1686 23.8348 69.2175 21.9855 69.2955C21.468 69.3173 21.0076 69.3874 20.5823 69.4521C19.4878 69.6186 18.626 69.7497 17.6231 68.9327C16.2305 67.7983 15.1581 65.4982 16.3826 64.1527C17.3634 63.0752 19.5185 63.6917 21.705 64.3172C22.2482 64.4726 22.7934 64.6286 23.323 64.7592C23.8925 64.8782 24.4298 64.6765 24.6744 64.0888C24.7336 63.9489 24.8051 63.7529 24.8914 63.5162C25.2215 62.6106 25.7684 61.1103 26.6732 59.8874C27.5626 58.6852 31.2403 55.1973 33.0361 53.4942C33.545 53.0116 33.9028 52.6723 34.0032 52.5689C34.5382 52.0178 34.6189 51.6685 34.5036 51.223C34.0309 49.4007 33.5512 46.7741 34.7828 44.1846C36.0092 41.5903 38.4628 40.3597 39.7723 40.0706C40.5001 39.9127 41.0767 39.8606 41.5729 39.8158C41.9715 39.7798 42.3183 39.7485 42.6499 39.6708C42.9209 39.6059 43.1593 39.52 43.4079 39.4303C43.8449 39.2728 44.313 39.104 45.0434 39.0189C46.1893 38.8857 48.6864 39.3769 51.179 41.0349C52.9481 42.2154 53.9654 43.067 54.641 43.6325C54.9165 43.8631 55.1351 44.0462 55.3248 44.1846C55.6996 44.4559 56.2713 44.5961 57.1076 44.8012C58.0829 45.0403 59.4181 45.3677 61.2207 46.0943C66.946 48.4041 72.8324 48.2293 85.3091 45.5066C86.7848 45.1859 90.2088 44.5151 92.7685 44.2811C93.8378 44.1653 94.9433 44.241 96.0631 44.3177C97.031 44.384 98.0096 44.4511 98.9846 44.3957C100.647 44.2781 102.46 44.0757 104.264 43.8744C107.529 43.5099 110.761 43.1492 112.997 43.303C114.833 43.4243 117.218 43.9906 118.728 44.3491C118.993 44.412 119.231 44.4685 119.434 44.5151C120.499 44.7628 121.92 45.4304 123.294 46.0764C123.679 46.2572 124.06 46.4363 124.429 46.604C124.725 46.7386 125.273 46.9992 125.997 47.3435C129.396 48.9605 136.68 52.4246 139.984 53.3674C142.397 54.0591 145.524 53.8371 148.217 53.6458C149.993 53.5197 151.58 53.407 152.649 53.5785C155.343 54.0103 156.579 55.4748 156.878 56.5632C157.038 57.1488 157.129 57.7066 157.21 58.2036C157.279 58.634 157.342 59.0188 157.436 59.3363C157.554 59.7465 158.172 60.2494 158.819 60.7752C159.258 61.1326 159.71 61.5006 160.028 61.8573C160.814 62.7342 161.176 64.4512 161.291 65.4478C161.351 65.9483 161.074 67.0684 160.812 68.1245C160.552 69.1711 160.308 70.155 160.424 70.4111C160.618 70.8428 160.987 71.2647 161.545 71.0724C162.409 70.7745 163.347 69.9719 164.355 69.1084C165.99 67.709 167.812 66.1498 169.808 66.3203C171.147 66.4352 171.875 67.2732 172.883 68.4335C173.161 68.7528 173.46 69.0965 173.798 69.4562C174.165 69.8482 174.535 70.2007 174.888 70.5363C176.04 71.6311 177.001 72.5444 177.001 74.052C177.001 76.4839 175.803 78.438 174.525 80.5241C173.745 81.7977 172.934 83.1205 172.347 84.6312C171.103 87.8406 170.048 91.7319 169.023 95.516ZM55.8601 74.4884C55.362 74.1398 54.7436 74.4975 55.0388 75.1494C57.151 79.7778 64.751 79.9984 67.0841 75.6272C67.4255 74.9847 66.7889 74.5436 66.2081 74.9288C63.5792 76.6557 58.857 76.6557 55.8601 74.4884ZM67.5913 70.3831C65.8485 64.9751 58.2026 64.7774 55.6199 68.7397C55.2235 69.3506 55.777 69.7591 56.4318 69.511C59.2538 68.4274 63.5792 68.3588 66.7059 70.8333C67.1905 71.2194 67.776 70.9621 67.5913 70.3831ZM62.5098 63.4597C67.5312 64.0195 70.9165 67.4819 70.6906 72.2841C70.4552 77.087 67.0706 81.275 60.7943 81.036C54.5501 80.7878 51.2759 75.9577 52.1428 70.9074C53.0143 65.8472 57.4782 62.9087 62.5098 63.4597Z" fill="black"/>
</svg>
