<svg width="200" height="200" viewBox="0 0 200 200" fill="none" xmlns="http://www.w3.org/2000/svg">
<g clip-path="url(#clip0_212_475)">
<g filter="url(#filter0_d_212_475)">
<rect x="10" y="10" width="180" height="180" rx="16" fill="#292C34"/>
<rect x="10.5" y="10.5" width="179" height="179" rx="15.5" stroke="black" stroke-opacity="0.1"/>
</g>
<path d="M100.021 110.726C105.991 110.726 110.83 105.87 110.83 99.8804C110.83 93.8905 105.991 89.0347 100.021 89.0347C94.052 89.0347 89.2129 93.8905 89.2129 99.8804C89.2129 105.87 94.052 110.726 100.021 110.726Z" fill="#00D8FF"/>
<path d="M100.021 124.727C84.8418 124.727 71.5789 122.933 61.6532 119.52C55.2155 117.316 49.7467 114.378 45.8496 111.029C41.7157 107.486 39.5195 103.618 39.5195 99.8808C39.5195 92.7079 47.3567 85.6862 60.5121 81.106C71.2774 77.3467 85.3155 75.251 99.9995 75.251C114.425 75.251 128.269 77.2819 138.97 80.9979C145.236 83.1584 150.511 85.9671 154.257 89.0782C158.326 92.4918 160.48 96.2295 160.48 99.8808C160.48 107.335 151.716 114.875 137.592 119.563C127.602 122.89 114.253 124.727 100.021 124.727ZM100.021 80.4362C86.0906 80.4362 72.3109 82.4671 62.2345 85.9887C50.1342 90.2233 44.7085 96.0135 44.7085 99.8808C44.7085 103.899 50.5433 110.23 63.3326 114.615C72.72 117.835 85.4232 119.541 100.021 119.541C113.715 119.541 126.482 117.813 135.977 114.637C149.262 110.208 155.334 103.878 155.334 99.8808C155.334 97.8283 153.783 95.4085 150.963 93.0536C147.712 90.3313 142.975 87.8467 137.312 85.8807C127.128 82.3807 113.887 80.4362 100.021 80.4362Z" fill="#00D8FF"/>
<path d="M75.4949 153.936C73.2987 153.936 71.3609 153.461 69.7246 152.51C63.5453 148.924 61.3922 138.597 63.9974 124.877C66.129 113.621 71.3394 100.399 78.6814 87.6303C85.8942 75.0993 94.5496 64.0808 103.097 56.627C108.092 52.2628 113.152 49.0652 117.717 47.38C122.69 45.5436 126.997 45.5436 130.14 47.3584C136.578 51.0745 138.709 62.482 135.695 77.087C133.563 87.4575 128.482 99.9668 121.377 112.347C113.798 125.526 105.616 136.155 97.7146 143.091C92.5903 147.584 87.3153 150.868 82.4924 152.575C79.9733 153.483 77.6049 153.936 75.4949 153.936ZM80.8991 88.9266L83.1383 90.2229C76.1838 102.322 71.038 115.306 69.0572 125.85C66.6672 138.489 68.971 146.094 72.2868 148.016C73.1049 148.492 74.1815 148.751 75.4949 148.751C79.7795 148.751 86.5186 146.029 94.3128 139.202C101.784 132.655 109.6 122.458 116.899 109.776C123.745 97.8711 128.611 85.9019 130.635 76.0716C133.456 62.3091 131.023 53.8832 127.556 51.8739C125.791 50.8585 122.927 50.9881 119.482 52.2628C115.499 53.7319 110.999 56.6054 106.478 60.5591C98.3606 67.6456 90.0712 78.1889 83.1383 90.2445L80.8991 88.9266Z" fill="#00D8FF"/>
<path d="M124.546 154C118.69 154 111.262 150.457 103.511 143.759C94.8555 136.284 86.0494 125.157 78.6858 112.389C71.4515 99.8578 66.2841 86.8299 64.1095 75.6601C62.8392 69.1354 62.6023 63.1508 63.4205 58.3328C64.3248 53.0828 66.4563 49.3451 69.6214 47.5087C76.0375 43.771 86.9537 47.6167 98.0635 57.5334C105.944 64.5551 114.212 75.228 121.338 87.5861C128.939 100.765 134.041 113.188 136.065 123.515C137.379 130.213 137.594 136.435 136.668 141.491C135.678 146.87 133.439 150.695 130.209 152.574C128.594 153.525 126.678 154 124.546 154ZM83.1642 109.796C90.1402 121.895 98.7956 132.849 106.891 139.827C116.602 148.21 124.31 150.025 127.647 148.08C131.113 146.071 133.654 137.84 131.027 124.531C129.089 114.765 124.202 102.883 116.881 90.2003C110.013 78.2959 102.111 68.0767 94.6401 61.4224C84.1762 52.089 75.693 49.9933 72.2266 52.0025C70.4611 53.018 69.1477 55.589 68.5233 59.2186C67.8128 63.41 68.0281 68.7681 69.1907 74.6663C71.2577 85.2744 76.2098 97.7405 83.1642 109.796Z" fill="#00D8FF"/>
</g>
<defs>
<filter id="filter0_d_212_475" x="3" y="7" width="194" height="194" filterUnits="userSpaceOnUse" color-interpolation-filters="sRGB">
<feFlood flood-opacity="0" result="BackgroundImageFix"/>
<feColorMatrix in="SourceAlpha" type="matrix" values="0 0 0 0 0 0 0 0 0 0 0 0 0 0 0 0 0 0 127 0" result="hardAlpha"/>
<feMorphology radius="2" operator="erode" in="SourceAlpha" result="effect1_dropShadow_212_475"/>
<feOffset dy="4"/>
<feGaussianBlur stdDeviation="4.5"/>
<feComposite in2="hardAlpha" operator="out"/>
<feColorMatrix type="matrix" values="0 0 0 0 0 0 0 0 0 0 0 0 0 0 0 0 0 0 0.25 0"/>
<feBlend mode="normal" in2="BackgroundImageFix" result="effect1_dropShadow_212_475"/>
<feBlend mode="normal" in="SourceGraphic" in2="effect1_dropShadow_212_475" result="shape"/>
</filter>
<clipPath id="clip0_212_475">
<rect width="200" height="200" fill="white"/>
</clipPath>
</defs>
</svg>
